<svg width="130" height="40" viewBox="0 0 130 40" fill="none" xmlns="http://www.w3.org/2000/svg">
<path d="M128.274 31.0008H106.785L105.591 28.8008H129.468L128.274 31.0008Z" fill="#E3A355"/>
<path d="M128.274 9H106.785L105.591 28.8H129.468L128.274 9Z" fill="#FFFAEE"/>
<path d="M79.3242 22.1992H103.202L102.008 30.9992H80.5181L79.3242 22.1992Z" fill="#E3A355"/>
<path d="M103.202 22.2H79.3242L80.5181 9H102.008L103.202 22.2Z" fill="#FFFAEE"/>
<path d="M53.0625 20H76.9401L75.7462 31H54.2564L53.0625 20Z" fill="#E3A355"/>
<path d="M76.9401 20H53.0625L54.2564 9H75.7462L76.9401 20Z" fill="#FFFAEE"/>
<path d="M50.6735 17.8H26.7959L27.9898 9H49.4796L50.6735 17.8Z" fill="#FFFAEE"/>
<path d="M26.7959 17.8008H50.6735L49.4796 31.0008H27.9898L26.7959 17.8008Z" fill="#E3A355"/>
<path d="M1.72318 9H23.213L24.4069 11.2H0.529297L1.72318 9Z" fill="#E3A355"/>
<path d="M1.72318 30.9992H23.213L24.4069 11.1992H0.529297L1.72318 30.9992Z" fill="#FFFAEE"/>
<path d="M10.9657 25.9147V18.9099L8.22073 20.0258L7.26562 18.1514L11.4279 16.1133H14.1882V25.9147H10.9657Z" fill="#001C20"/>
<path d="M38.8606 16.4406C38.3652 16.4406 37.845 16.4254 37.2999 16.3948C36.7555 16.365 36.2341 16.328 35.7393 16.2822C35.2445 16.2364 34.8301 16.196 34.4919 16.1608L34.6428 14.9288C35.0032 14.9464 35.4222 14.9704 35.8998 15.0009C36.3773 15.0314 36.8581 15.0573 37.342 15.0784C37.8246 15.0995 38.2467 15.1101 38.6084 15.1101C38.8883 15.1156 39.1681 15.0944 39.4432 15.0467C39.6099 15.0226 39.7668 14.9582 39.8978 14.8601C39.9454 14.8195 39.9829 14.7698 40.0076 14.7145C40.0323 14.6592 40.0438 14.5996 40.0411 14.5398C40.0431 14.4902 40.0319 14.4409 40.0086 14.3961C39.9854 14.3514 39.9506 14.3125 39.9074 14.2829C39.7494 14.1968 39.5738 14.1417 39.3916 14.1209C39.1369 14.0752 38.7746 14.0312 38.3047 13.9889C37.685 13.9379 37.0685 13.858 36.4575 13.7496C36.0401 13.6817 35.6341 13.5634 35.2503 13.3976C34.9794 13.2853 34.7508 13.1015 34.5932 12.8696C34.419 12.5486 34.3556 12.1863 34.4112 11.8311C34.4669 11.476 34.639 11.145 34.9045 10.8825C35.3242 10.5668 35.8283 10.3607 36.3639 10.2859C37.1044 10.1621 37.8559 10.1032 38.6084 10.1099C39.0134 10.1099 39.4699 10.1222 39.9818 10.1451C40.4938 10.168 40.9942 10.1979 41.4833 10.2278C41.9723 10.2577 42.3982 10.2912 42.7574 10.3264L42.6389 11.5901L41.4508 11.532C40.9936 11.5109 40.5352 11.4915 40.0755 11.4739C39.6132 11.4545 39.2101 11.4457 38.8606 11.4457C38.587 11.4426 38.3136 11.4596 38.043 11.4968C37.8755 11.5122 37.7141 11.5627 37.5712 11.6446C37.5253 11.6738 37.488 11.7131 37.4626 11.7588C37.4373 11.8046 37.4247 11.8555 37.426 11.9069C37.4242 11.9623 37.4371 12.0173 37.4638 12.067C37.4904 12.1167 37.5299 12.1597 37.5788 12.192C37.7407 12.2838 37.9215 12.3437 38.1098 12.368C38.3645 12.4137 38.7275 12.4665 39.1987 12.5264C39.9284 12.6109 40.5358 12.7024 41.0363 12.7886C41.4466 12.8537 41.8465 12.966 42.2263 13.123C42.4932 13.2298 42.7193 13.4075 42.8758 13.6334C43.0211 13.8778 43.0911 14.1541 43.0783 14.4325C43.0894 14.6505 43.0517 14.8683 42.9675 15.0724C42.8834 15.2764 42.7547 15.4624 42.5893 15.6187C42.1862 15.9529 41.689 16.1756 41.1548 16.2611C40.3992 16.3962 39.63 16.4564 38.8606 16.4406Z" fill="#001C20"/>
<path d="M60.6875 18.2395V10.2385H65.081C65.9452 10.2208 66.8082 10.3102 67.6465 10.5043C68.2574 10.6375 68.8026 10.9538 69.1973 11.4037C69.5461 11.8261 69.7206 12.4127 69.7206 13.1637C69.7206 13.9146 69.5461 14.5101 69.1973 14.9501C68.8093 15.4169 68.2634 15.7518 67.6465 15.9022C66.8108 16.1129 65.9468 16.2102 65.081 16.1909H63.698V18.2395H60.6875ZM63.6904 14.4889H64.9568C65.5643 14.4889 65.9998 14.3827 66.2634 14.1704C66.527 13.9574 66.6609 13.623 66.6609 13.1654C66.6609 12.7078 66.5309 12.3734 66.2787 12.1886C66.0265 12.0038 65.5815 11.9105 64.9645 11.9105H63.698L63.6904 14.4889Z" fill="#001C20"/>
<path d="M59.3147 29.7248L57.6279 21.7168H60.6308L61.6757 27.6427H62.0309L63.3681 21.8101H66.6921L68.075 27.6427H68.4299L69.3412 21.7168H72.377L70.7301 29.7248H66.1799L64.9995 23.9643H64.965L63.7846 29.7248H59.3147Z" fill="#001C20"/>
<path d="M89.7559 20.1994V10.9805H92.7757V20.1994H89.7559Z" fill="#001C20"/>
<path d="M39.3088 28.9903V27.6404H34.4512V25.8804L36.539 19.8242H39.9124L37.3662 25.6128H39.3088L39.5285 23.58L42.2448 23.5255V25.6128H43.0204V27.6439H42.2448V28.9938L39.3088 28.9903Z" fill="#001C20"/>
<path d="M89.7559 29.8995V23.5723H92.7757V29.8995H89.7559Z" fill="#001C20"/>
<path d="M112.294 23.7695V13.998H115.868L119.307 19.5403H119.593V13.998H122.776V23.7695H119.194L115.78 18.0531H115.476V23.7695H112.294Z" fill="#001C20"/>
</svg>
