<svg width="68" height="45" viewBox="0 0 68 45" fill="none" xmlns="http://www.w3.org/2000/svg">
<rect width="67.5" height="45" rx="4" fill="#10202D"/>
<path d="M3.43158 11.8457L0.0117188 19.5771H2.23822L2.86923 18.0289H6.53757L7.16531 19.5771H9.44086L6.02426 11.8457H3.43158ZM4.69686 13.645L5.81502 16.3504H3.57544L4.69686 13.645Z" fill="#C1C9E5"/>
<path d="M9.67578 19.5751V11.8438L12.8398 11.8552L14.6801 16.8399L16.4763 11.8438H19.615V19.5751H17.6271V13.8783L15.52 19.5751H13.7766L11.6636 13.8783V19.5751H9.67578Z" fill="#C1C9E5"/>
<path d="M20.9766 19.5752V11.8438H27.4632V13.5732H22.9853V14.8956H27.3586V16.5233H22.9853V17.8967H27.4632V19.5752H20.9766Z" fill="#C1C9E5"/>
<path d="M28.6133 11.8457V19.5771H30.6011V16.8304H31.4381L33.8216 19.5771H36.2508L33.6352 16.7287C34.7087 16.6406 35.816 15.7448 35.816 14.354C35.816 12.727 34.5027 11.8457 33.0369 11.8457H28.6133ZM30.6011 13.5751H32.8734C33.4185 13.5751 33.8151 13.9897 33.8151 14.3889C33.8151 14.9026 33.3013 15.2028 32.9029 15.2028H30.6011V13.5751Z" fill="#C1C9E5"/>
<path d="M38.6586 19.5752H36.6289V11.8438H38.6586V19.5752Z" fill="#C1C9E5"/>
<path d="M43.4719 19.5752H43.0338C40.914 19.5752 39.627 17.9513 39.627 15.7413C39.627 13.4766 40.8996 11.8438 43.5765 11.8438H45.7736V13.6749H43.4962C42.4095 13.6749 41.641 14.4995 41.641 15.7603C41.641 17.2576 42.5197 17.8865 43.7858 17.8865H44.3089L43.4719 19.5752Z" fill="#C1C9E5"/>
<path d="M47.7988 11.8457L44.3789 19.5771H46.6054L47.2364 18.0289H50.9048L51.5325 19.5771H53.808L50.3915 11.8457H47.7988ZM49.0641 13.645L50.1822 16.3504H47.9426L49.0641 13.645Z" fill="#C1C9E5"/>
<path d="M54.0371 19.5752V11.8438H56.5644L59.7914 16.7013V11.8438H61.7793V19.5752H59.3337L56.025 14.5904V19.5752H54.0371Z" fill="#C1C9E5"/>
<path d="M14.4902 33.1045V25.373H20.9769V27.1025H16.499V28.4249H20.8723V30.0526H16.499V31.4259H20.9769V33.1045H14.4902Z" fill="#C1C9E5"/>
<path d="M46.2734 33.1045V25.373H52.7601V27.1025H48.2822V28.4249H52.6346V30.0526H48.2822V31.4259H52.7601V33.1045H46.2734Z" fill="#C1C9E5"/>
<path d="M21.2295 33.1044L24.3878 29.2864L21.1543 25.373H23.6587L25.5844 27.7923L27.5167 25.373H29.923L26.732 29.2387L29.8961 33.1044H27.3921L25.5223 30.7233L23.6979 33.1044H21.2295Z" fill="#C1C9E5"/>
<path d="M30.1309 25.375V33.1064H32.171V30.6649H34.2635C36.034 30.6649 37.3761 29.7516 37.3761 27.9755C37.3761 26.5041 36.3235 25.375 34.5218 25.375H30.1309ZM32.171 27.1235H34.3747C34.9467 27.1235 35.3555 27.4643 35.3555 28.0136C35.3555 28.5296 34.9487 28.9037 34.3681 28.9037H32.171V27.1235Z" fill="#C1C9E5"/>
<path d="M38.2402 25.373V33.1045H40.2281V30.3578H41.0651L43.4485 33.1045H45.8778L43.2622 30.2561C44.3356 30.168 45.4429 29.2721 45.4429 27.8813C45.4429 26.2544 44.1296 25.373 42.6639 25.373H38.2402ZM40.2281 27.1025H42.5004C43.0455 27.1025 43.442 27.517 43.442 27.9163C43.442 28.4299 42.9282 28.7301 42.5298 28.7301H40.2281V27.1025Z" fill="#C1C9E5"/>
<path d="M53.6821 33.1045V31.4259H57.6604C58.2491 31.4259 58.5039 31.1166 58.5039 30.7774C58.5039 30.4524 58.2499 30.1238 57.6604 30.1238H55.8627C54.3 30.1238 53.4297 29.1981 53.4297 27.8082C53.4297 26.5685 54.2267 25.373 56.5488 25.373H60.4199L59.5829 27.1126H56.2349C55.5949 27.1126 55.3979 27.4392 55.3979 27.751C55.3979 28.0715 55.6414 28.4249 56.1303 28.4249H58.0135C59.7555 28.4249 60.5114 29.3857 60.5114 30.6439C60.5114 31.9966 59.6691 33.1045 57.9187 33.1045H53.6821Z" fill="#C1C9E5"/>
<path d="M60.977 33.1045V31.4259H64.9553C65.544 31.4259 65.7989 31.1166 65.7989 30.7774C65.7989 30.4524 65.5448 30.1238 64.9553 30.1238H63.1576C61.5949 30.1238 60.7246 29.1981 60.7246 27.8082C60.7246 26.5685 61.5216 25.373 63.8437 25.373H67.6357L66.8778 27.1126H63.5298C62.8899 27.1126 62.6928 27.4392 62.6928 27.751C62.6928 28.0715 62.9363 28.4249 63.4252 28.4249H65.3084C67.0504 28.4249 67.8063 29.3857 67.8063 30.6439C67.8063 31.9966 66.964 33.1045 65.2136 33.1045H60.977Z" fill="#C1C9E5"/>
</svg>
