<svg width="18" height="20" viewBox="0 0 18 20" fill="none" xmlns="http://www.w3.org/2000/svg">
<path fill-rule="evenodd" clip-rule="evenodd" d="M9.42863 0.869141C9.90202 0.869141 10.2858 1.25847 10.2858 1.73872V2.6083H10.7143C13.0811 2.6083 14.9999 4.55463 14.9999 6.95598V9.56493C14.9999 10.2064 15.1995 10.9321 15.5164 11.6648C15.8299 12.3895 16.2353 13.0688 16.593 13.6032C17.244 14.5758 16.8409 16.113 15.5094 16.3566C14.6387 16.5159 13.4082 16.7055 11.9601 16.8283C11.9618 16.8707 11.9627 16.9134 11.9627 16.9564C11.9627 18.6373 10.6196 19.9999 8.96279 19.9999C7.30597 19.9999 5.96286 18.6373 5.96286 16.9564C5.96286 16.9113 5.96381 16.8664 5.96569 16.8218C4.54981 16.699 3.3465 16.5131 2.49084 16.3566C1.1593 16.113 0.756191 14.5758 1.40718 13.6032C1.76494 13.0688 2.17027 12.3895 2.48372 11.6648C2.80068 10.9321 3.00022 10.2064 3.00022 9.56493V6.95598C3.00022 4.55463 4.91906 2.6083 7.28583 2.6083H7.71439V1.73872C7.71439 1.25847 8.09812 0.869141 8.57151 0.869141H9.42863ZM9.00007 16.9564C8.56183 16.9564 8.13249 16.9475 7.71465 16.9316C7.70788 17.631 8.26801 18.2229 8.96279 18.2229C9.65603 18.2229 10.2169 17.6327 10.211 16.9343C9.81665 16.9485 9.41226 16.9564 9.00007 16.9564ZM10.7143 4.34745C12.1345 4.34745 13.2857 5.51528 13.2857 6.95598V9.56493C13.2857 10.5418 13.581 11.5183 13.9467 12.3638C14.3159 13.2172 14.7811 13.992 15.1748 14.5802C15.1835 14.5933 15.1876 14.6058 15.189 14.6183C15.1902 14.6295 15.1892 14.64 15.1871 14.6483C13.8305 14.8957 11.5711 15.2172 9.00007 15.2172C6.42914 15.2172 4.16968 14.8957 2.81311 14.6483C2.81097 14.64 2.80994 14.6295 2.81114 14.6183C2.8126 14.6058 2.81663 14.5933 2.82537 14.5802C3.21904 13.992 3.68429 13.2172 4.05345 12.3638C4.41919 11.5183 4.71447 10.5418 4.71447 9.56493V6.95598C4.71447 5.51528 5.86567 4.34745 7.28583 4.34745H10.7143Z" fill="#C1C9E5"/>
<path fill-rule="evenodd" clip-rule="evenodd" d="M5.54572 0.658433C5.43232 0.198087 4.95885 -0.0893404 4.50534 0.0259684C4.44586 0.0411641 4.38946 0.0580029 4.29286 0.0909711C4.17467 0.131295 4.01284 0.192358 3.82076 0.279854C3.43763 0.454375 2.92704 0.737278 2.40154 1.17636C1.33451 2.06789 0.243392 3.57486 0.0043416 6.00029C-0.0428004 6.47817 0.300906 6.9043 0.771894 6.95208C1.24288 6.99987 1.66296 6.65122 1.71002 6.17335C1.89952 4.25087 2.73702 3.1491 3.49128 2.51886C3.87647 2.19707 4.24984 1.99083 4.52292 1.86644C4.65894 1.80447 4.76831 1.76363 4.83928 1.73942C4.86842 1.72947 4.89773 1.72008 4.92739 1.7116C5.38347 1.59286 5.66015 1.12256 5.54572 0.658433Z" fill="#C1C9E5"/>
<path fill-rule="evenodd" clip-rule="evenodd" d="M12.4542 0.658801C12.569 0.192885 13.0344 -0.09039 13.4937 0.026089C13.5535 0.0413041 13.61 0.0581906 13.7071 0.0913381C13.8253 0.131662 13.9871 0.192725 14.1792 0.280221C14.5624 0.454742 15.0729 0.737644 15.5985 1.17672C16.6655 2.06826 17.7566 3.57523 17.9957 6.00065C18.0428 6.47852 17.6991 6.90466 17.2281 6.95244C16.7571 7.00022 16.337 6.65158 16.2899 6.17371C16.1004 4.25123 15.263 3.14947 14.5087 2.51923C14.1235 2.19744 13.7502 1.9912 13.4771 1.86681C13.3411 1.80484 13.2317 1.76399 13.1607 1.73979C13.1316 1.72984 13.1022 1.72045 13.0726 1.71197C12.6165 1.59323 12.3399 1.12293 12.4542 0.658801Z" fill="#C1C9E5"/>
</svg>
