<svg width="130" height="40" viewBox="0 0 130 40" fill="none" xmlns="http://www.w3.org/2000/svg">
<g clip-path="url(#clip0_0_1746)">
<path d="M24.3743 19.1731C25.1028 18.1311 25.4836 16.9049 25.4671 15.6544L25.4513 6.52693C25.4671 6.33676 25.4671 6.1457 25.4513 5.95553C25.3316 4.32913 24.5541 2.80968 23.2814 1.71508C22.0242 0.588854 20.3532 -0.0263096 18.625 0.000863374H12.2422V19.1731H24.3743ZM20.1296 4.91797C20.5536 5.28817 20.8092 5.8005 20.8423 6.34649L20.8582 6.52693L20.874 15.6544C20.8753 15.9391 20.8171 16.2212 20.703 16.4845C20.5888 16.7477 20.4208 16.9869 20.2088 17.1882C19.9968 17.3895 19.7449 17.549 19.4676 17.6574C19.1903 17.7657 18.8932 17.8209 18.5933 17.8197H16.7561V4.34656H18.5616C19.1428 4.33575 19.7054 4.54078 20.1296 4.91797Z" fill="white"/>
<path d="M25.9123 23.7904C25.8307 22.7355 25.4712 21.7169 24.867 20.8281H12.2598V39.9853H19.086C19.9863 39.9997 20.88 39.8375 21.7112 39.5089C22.5424 39.1803 23.2932 38.6924 23.9167 38.0756C24.5596 37.4757 25.069 36.7593 25.4145 35.9688C25.76 35.1784 25.9347 34.3301 25.9281 33.4743L25.9123 24.3468C25.9281 24.1616 25.9281 23.9756 25.9123 23.7904ZM21.3351 33.4743C21.3376 33.7627 21.2786 34.0487 21.1615 34.3149C21.0445 34.5811 20.8718 34.822 20.654 35.0231C20.4506 35.2228 20.207 35.3817 19.9376 35.4902C19.6683 35.5987 19.3786 35.6546 19.086 35.6546H16.8212V22.1815H19.1019C19.6678 22.1764 20.2134 22.3814 20.6223 22.7529C21.0448 23.1258 21.3048 23.6355 21.3509 24.1814L21.3667 24.3618L21.3351 33.4743Z" fill="white"/>
<path d="M111.563 19.129H116.125V4.34765H120.243L120.259 0.00195312H107.018L107.002 4.34765H111.563V19.129Z" fill="#FDE100"/>
<path d="M111.564 20.7832V39.9855H116.126V20.7832H111.564Z" fill="#FDE100"/>
<path d="M105.26 19.129V17.8208H97.9112V4.34765H105.26L105.276 0.00195312L93.334 0.0169902V19.129H105.26Z" fill="#FDE100"/>
<path d="M93.334 20.7832V39.9855H97.9271L97.9429 22.1666H105.292L105.276 20.7832H93.334Z" fill="#FDE100"/>
<path d="M81.1707 19.1279L81.1866 6.52683C81.184 6.23838 81.243 5.95243 81.3601 5.68624C81.4771 5.42004 81.6498 5.17912 81.8676 4.97802C82.2803 4.58432 82.8379 4.35803 83.4228 4.34681C84.0077 4.33559 84.5744 4.54031 85.0036 4.91787C85.4261 5.29077 85.686 5.80046 85.7321 6.34639L85.748 6.52683V19.1279H90.2777V6.5118C90.2935 6.32163 90.2935 6.13056 90.2777 5.94039C90.1511 4.31574 89.3748 2.79859 88.1079 1.69995C86.8573 0.584728 85.1986 -0.0246694 83.4831 0.000765328C82.5902 -0.0114625 81.7043 0.151892 80.8811 0.48055C80.0579 0.809209 79.3153 1.29606 78.7 1.91047C78.06 2.51244 77.5526 3.22928 77.2073 4.01925C76.8619 4.80921 76.6856 5.65651 76.6885 6.5118V19.1128L81.1707 19.1279Z" fill="#FDE100"/>
<path d="M85.7332 20.7832V33.4745C85.7329 34.0474 85.4951 34.5973 85.0714 35.0052C84.6476 35.4132 84.0718 35.6465 83.4684 35.6548C82.8902 35.664 82.3306 35.4613 81.9058 35.0888C81.4811 34.7164 81.2238 34.2028 81.1877 33.6549C81.1877 33.5948 81.1718 33.5346 81.1718 33.4745L81.1877 20.7832H76.6896V33.4745C76.6738 33.6646 76.6738 33.8557 76.6896 34.0459C76.8162 35.6705 77.5925 37.1877 78.8594 38.2863C80.1467 39.4213 81.8489 40.0356 83.6051 39.9991C85.3614 39.9626 87.0337 39.2782 88.2673 38.0908C88.9073 37.4888 89.4147 36.772 89.76 35.982C90.1054 35.1921 90.2817 34.3448 90.2788 33.4895V20.7982H85.7332V20.7832Z" fill="#FDE100"/>
<path d="M62.5144 19.1286H69.9584C69.1348 18.482 68.3112 17.8204 67.4876 17.1738C66.0146 15.8956 65.1911 14.2716 65.0168 12.3018C64.9852 11.986 64.9693 11.6552 64.9693 11.2943L65.001 6.51254C64.9993 6.09383 65.1258 5.68366 65.3651 5.33199C65.6045 4.98032 65.9464 4.70231 66.3492 4.53181C66.752 4.36131 67.1984 4.30567 67.6339 4.37168C68.0694 4.43769 68.4753 4.62249 68.8022 4.90358C69.2247 5.27647 69.4846 5.78617 69.5307 6.33209L69.5466 6.51254V9.55002H74.0763V6.52758C74.0921 6.3374 74.0921 6.14634 74.0763 5.95617C73.9566 4.32977 73.1791 2.81032 71.9065 1.71573C70.6191 0.581124 68.9169 -0.0329992 67.1608 0.00349094C65.4046 0.0399811 63.7324 0.724217 62.4986 1.91121C61.8566 2.51254 61.3468 3.22894 60.9988 4.01882C60.6508 4.8087 60.4715 5.65634 60.4713 6.51254L60.4554 12.6025C60.4396 13.0837 60.4554 13.5649 60.4871 14.0311C60.6772 16.0761 61.3424 17.7602 62.5144 19.1286Z" fill="#FDE100"/>
<path d="M71.8735 20.7832H64.4137C65.269 21.4599 66.1401 22.1516 67.0112 22.8282C68.4841 24.1064 69.2443 25.7304 69.4186 27.7002C69.4502 28.016 69.4344 28.7228 69.4344 28.6927L69.4502 33.4745C69.4535 33.7644 69.3932 34.0518 69.2733 34.3184C69.1533 34.585 68.9762 34.8251 68.7534 35.0233C68.3364 35.4152 67.7768 35.6401 67.1901 35.6513C66.6035 35.6625 66.0348 35.4592 65.6016 35.0834C65.1776 34.7132 64.922 34.2009 64.8888 33.6549C64.8888 33.5948 64.873 33.5346 64.873 33.4745L64.9205 30.437H60.3908V33.4745C60.3749 33.6646 60.3749 33.8557 60.3908 34.0459C60.5044 35.6706 61.2764 37.1904 62.5448 38.2863C63.525 39.1301 64.742 39.6858 66.0481 39.8863C67.3543 40.0867 68.6937 39.9231 69.904 39.4154C71.1143 38.9078 72.1435 38.0777 72.8669 37.0259C73.5904 35.9741 73.977 34.7457 73.98 33.4895L73.9958 27.3995C74.0116 26.9183 73.9958 26.4371 73.9641 25.971C73.7741 23.8808 73.0772 22.1516 71.8735 20.7832Z" fill="#FDE100"/>
<path d="M48.8141 19.129H53.3597V4.34765H57.4618L57.4776 0.00195312L44.2844 0.0169902L44.2686 4.36269H48.8141V19.129Z" fill="white"/>
<path d="M48.8127 20.7832L48.7969 39.9855H53.3424L53.3583 20.7832H48.8127Z" fill="white"/>
<path d="M41.0372 19.129V17.8208H33.7358V4.34765L41.0055 4.36269L41.0214 0.0169902L29.2219 0.00195312L29.2061 19.129H41.0372Z" fill="white"/>
<path d="M33.7675 22.1666L41.0214 22.1816V20.7832H29.2061V39.9855H41.0055L41.0372 35.6548L33.7516 35.6398L33.7675 22.1666Z" fill="white"/>
<path d="M0 27.3833V12.3613L7.98246 19.94L0 27.3833Z" fill="#FDE100"/>
<path d="M129.999 27.4732V12.4512L122.017 19.9697L129.999 27.4732Z" fill="#FDE100"/>
</g>
<defs>
<clipPath id="clip0_0_1746">
<rect width="130" height="40" fill="white"/>
</clipPath>
</defs>
</svg>
