<svg width="121" height="40" viewBox="0 0 121 40" fill="none" xmlns="http://www.w3.org/2000/svg">
<path d="M33.9566 9H33.0703V29.9702H33.9566V9Z" fill="#FFCC29"/>
<path d="M51.2444 9H50.2695V29.9702H51.2444V9Z" fill="#FFCC29"/>
<path d="M119.422 30H120.397V9H119.422V30Z" fill="#FFCC29"/>
<path d="M103.088 9H102.113V29.9702H103.088V9Z" fill="#FFCC29"/>
<path d="M68.5235 9H67.5781V29.9702H68.5235V9Z" fill="#FFCC29"/>
<path d="M85.8069 9H84.832V29.9702H85.8069V9Z" fill="#FFCC29"/>
<path d="M41.225 12.5193L36.9414 26.4795H38.9207L39.9251 22.9596H44.3564L45.3608 26.4795H47.3106L43.0861 12.5193H41.225ZM40.3387 21.4383L42.0817 15.3531H42.1408L43.8542 21.4383H40.3387Z" fill="white"/>
<path d="M25.1825 20.8716V19.3801H29.4661V24.4512C29.082 25.0776 28.5503 25.6145 27.9299 25.9725C27.1027 26.4796 26.1574 26.6586 25.212 26.6586C23.9122 26.6586 22.6124 26.2409 21.6966 25.3162C20.8103 24.4512 20.3672 23.1387 20.3672 21.498V17.4114C20.3672 15.8006 20.8103 14.5478 21.6375 13.6827C22.4942 12.758 23.7054 12.3105 24.9757 12.3105C26.1869 12.3105 27.3391 12.579 28.2253 13.4142C29.0525 14.1898 29.4365 15.2935 29.4661 16.427V16.4867H27.6049C27.6345 15.7708 27.3981 15.025 26.9255 14.4881C26.4528 13.981 25.7438 13.802 25.0053 13.802C24.2372 13.802 23.4986 14.1301 23.026 14.7566C22.5237 15.383 22.3169 16.248 22.3169 17.4412V21.6174C22.3169 22.8105 22.5828 23.7054 23.1146 24.3319C23.6463 24.9583 24.4144 25.2864 25.2416 25.2864C25.7733 25.2864 26.3346 25.1969 26.7778 24.9284C27.1323 24.7196 27.3686 24.3915 27.5459 24.0336V20.8716H25.1825Z" fill="white"/>
<path d="M62.3491 12.5193H64.8897V26.4795H62.9399V21.1102L63.1172 15.7409H63.0581L60.0448 26.4795H58.745L55.7317 15.7409H55.7022L55.8499 21.1102V26.4795H53.9297V12.5193H56.4112L59.3949 23.5562L62.3491 12.5193Z" fill="white"/>
<path d="M96.6088 12.5193H98.5291V26.4795H96.6088L91.3799 16.0988H91.2913V26.4795H89.3711V12.5193H91.2913L96.5202 22.9L96.6088 22.8701V12.5193Z" fill="white"/>
<path d="M73.3906 12.5193H79.9194V14.0406H77.6151V24.9284H79.9194V26.4795H73.3906V24.8985H75.6949V14.0108H73.3906V12.5193Z" fill="white"/>
<path d="M111.534 20.8722V19.3807H115.818V24.4517C115.434 25.0781 114.902 25.6151 114.281 25.973C113.454 26.4801 112.509 26.6591 111.564 26.6591C110.264 26.6591 108.964 26.2415 108.048 25.3168C107.162 24.4517 106.719 23.1392 106.719 21.4986V17.3821C106.719 15.7713 107.162 14.5185 107.989 13.6534C108.846 12.7287 110.057 12.2812 111.327 12.2812C112.538 12.2812 113.691 12.5497 114.577 13.3849C115.404 14.1605 115.788 15.2642 115.818 16.3977V16.4574H113.957C113.986 15.7415 113.75 14.9957 113.277 14.4588C112.804 13.9517 112.095 13.7727 111.357 13.7727C110.589 13.7727 109.85 14.1009 109.378 14.7273C108.875 15.3537 108.669 16.2188 108.669 17.4119V21.5881C108.669 22.7813 108.934 23.6761 109.466 24.3026C109.998 24.929 110.766 25.2571 111.593 25.2571C112.125 25.2571 112.686 25.1676 113.129 24.8991C113.484 24.6903 113.72 24.3622 113.897 24.0043V20.8722H111.534Z" fill="white"/>
<path d="M1.28469 30H15.8193C16.3215 30 16.7055 29.6122 16.7055 29.1051V9.89489C16.7055 9.38778 16.3215 9 15.8193 9H1.28469C0.782481 9 0.398438 9.38778 0.398438 9.89489V29.0753C0.398438 29.5824 0.812023 30 1.28469 30Z" fill="#FFCC29"/>
<path d="M12.926 20.3645C12.5715 19.7679 11.9807 19.3801 11.3012 19.2309C11.8625 18.9923 12.3352 18.6045 12.6306 18.0676C12.926 17.5307 13.0737 16.9042 13.0737 16.3076C13.0737 15.1741 12.7192 14.1301 11.8625 13.4738C11.0058 12.8176 10.0014 12.5193 8.8197 12.5193H4.41797V26.5093H9.381C10.4445 26.5093 11.508 26.1514 12.3056 25.4355C13.0737 24.7792 13.4578 23.7352 13.4578 22.3929C13.4578 21.5875 13.2805 20.9611 12.926 20.3645ZM6.98811 14.6968H8.34703C8.93787 14.6968 9.35146 14.8162 9.70596 15.1741C10.0605 15.5321 10.1786 16.069 10.1491 16.5761C10.1491 17.0534 10.0605 17.5605 9.70596 17.9184C9.381 18.2466 8.99695 18.4255 8.4652 18.4255H6.95857V14.6968H6.98811ZM10.1195 23.8545C9.79458 24.2125 9.26283 24.302 8.79016 24.302H7.01765V20.3048H8.99695C9.49917 20.3048 9.97183 20.4539 10.2377 20.8417C10.5331 21.2892 10.5922 21.8261 10.5922 22.363C10.5627 22.9 10.474 23.4667 10.1195 23.8545Z" fill="black"/>
</svg>
