<svg width="45" height="45" viewBox="0 0 45 45" fill="none" xmlns="http://www.w3.org/2000/svg">
<path d="M44.3312 27.9304C41.3288 39.9766 29.128 47.3324 17.0597 44.3282C5.01344 41.3167 -2.33058 29.1158 0.671783 17.0696C3.67415 5.02342 15.8676 -2.33243 27.9065 0.671763C39.9822 3.63914 47.3262 15.8768 44.3312 27.9304Z" fill="#10202D"/>
<path d="M33.1546 19.5447C33.5591 16.5447 31.2796 14.9785 28.1546 13.9197L29.1252 9.86087L26.6546 9.26528L25.7135 13.2359C25.0591 13.0815 24.3973 12.9271 23.7429 12.7947L24.6841 8.8241L22.1841 8.22852L21.2135 12.2873C20.6841 12.1623 20.1473 12.0668 19.6179 11.9418L16.2135 11.1256L15.5885 13.7506C15.5885 13.7506 17.4341 14.155 17.3679 14.1918C18.3679 14.4418 18.5591 15.0962 18.5223 15.5962L17.4267 20.2212C17.4929 20.2506 17.5811 20.2506 17.6767 20.3168C17.5811 20.2874 17.5223 20.2874 17.4267 20.2579L15.9267 26.7285C15.8017 27.0374 15.4855 27.4785 14.8017 27.3241C14.8311 27.3535 12.9855 26.883 12.9855 26.883L11.8164 29.7286L15.037 30.4786C15.6326 30.633 16.2282 30.758 16.787 30.9197L15.8164 35.0153L18.287 35.6109L19.2576 31.5521C19.9488 31.7359 20.6032 31.8977 21.2282 32.0521L20.2576 36.0815L22.7282 36.6771L23.6988 32.5815C27.9193 33.3315 31.0738 32.9859 32.3532 29.1403C33.3826 26.0741 32.2576 24.3241 30.0076 23.1697C31.6546 22.7947 32.8458 21.7285 33.1546 19.5447ZM27.5958 27.508C26.8752 30.5741 21.6914 28.9786 20.0296 28.5741L21.3091 23.133C23.0002 23.5447 28.3458 24.2947 27.5958 27.508ZM28.2796 19.5447C27.6252 22.3241 23.3091 20.9859 21.9046 20.6403L23.0958 15.7065C24.4708 16.0447 28.9708 16.6403 28.2796 19.5447Z" fill="#C1C9E5"/>
</svg>
