<svg width="46" height="45" viewBox="0 0 46 45" fill="none" xmlns="http://www.w3.org/2000/svg">
<path d="M44.3663 27.9304C41.364 39.9766 29.1632 47.3324 17.0948 44.3282C5.0486 41.3167 -2.29543 29.1158 0.70694 17.0696C3.7093 5.02342 15.9027 -2.33243 27.9416 0.671763C40.0173 3.63914 47.3613 15.8768 44.3663 27.9304Z" fill="#10202D"/>
<path d="M29.8327 15.2945C28.6503 12.606 25.9266 12.0359 22.5906 12.5919L21.5208 8.43945L18.9942 9.09399L20.0499 13.2323C19.3883 13.4013 18.7056 13.542 18.03 13.732L16.9743 9.6148L14.4476 10.2693L15.5174 14.4218C14.9755 14.5766 10.4219 15.7449 10.4219 15.7449L11.1186 18.4475C11.1186 18.4475 12.9767 17.9267 12.9556 17.9689C13.9831 17.7015 14.4687 18.2153 14.6939 18.7009L17.6358 30.0814C17.671 30.4121 17.6147 30.9752 16.9039 31.1652C16.9461 31.1863 15.067 31.6368 15.067 31.6368L15.3414 34.7898C15.3414 34.7898 19.8528 33.6356 20.444 33.4878L21.5278 37.6895L24.0545 37.0349L22.9706 32.8051C23.6674 32.6432 24.343 32.4743 24.9976 32.3054L26.0744 36.5141L28.601 35.8596L27.5172 31.6649C31.4092 30.7218 34.154 28.2655 33.591 24.5143C33.232 22.2551 30.7617 20.397 28.7066 20.1859C29.9734 19.0669 30.6139 17.434 29.8327 15.2945ZM28.6151 25.197C29.1148 28.913 23.9559 29.3705 22.2457 29.8139L20.7607 24.2539C22.478 23.8105 27.7705 21.9243 28.6151 25.197ZM25.5043 17.6311C26.0392 20.9319 21.6193 21.319 20.1977 21.685L18.8464 16.6387C20.2751 16.2798 24.4205 14.5696 25.5043 17.6311Z" fill="#C1C9E5"/>
</svg>
