<svg width="22" height="22" viewBox="0 0 22 22" fill="none" xmlns="http://www.w3.org/2000/svg">
<path d="M13.963 20.9953H8.03704C7.91966 20.9953 7.80396 20.9684 7.69948 20.9169C7.595 20.8653 7.50473 20.7905 7.4361 20.6987C7.36747 20.6069 7.32245 20.5007 7.30476 20.3889C7.28706 20.277 7.29719 20.1627 7.33432 20.0553L8.34244 17.1398C7.50642 17.4138 6.61468 17.4917 5.74119 17.367C4.8677 17.2423 4.03762 16.9187 3.3198 16.423C2.60197 15.9272 2.01709 15.2736 1.61365 14.5164C1.21021 13.7591 0.999847 12.9201 1 12.0688C1 9.93274 2.64013 7.42661 5.87483 4.61999C7.35875 3.34069 8.9383 2.16839 10.6007 1.11258C10.7199 1.03907 10.8585 1 11 1C11.1415 1 11.2801 1.03907 11.3993 1.11258C13.0617 2.16839 14.6412 3.34069 16.1252 4.61999C19.3599 7.42661 21 9.93274 21 12.0688C21.0002 12.9201 20.7898 13.7591 20.3863 14.5164C19.9829 15.2736 19.398 15.9272 18.6802 16.423C17.9624 16.9187 17.1323 17.2423 16.2588 17.367C15.3853 17.4917 14.4936 17.4138 13.6576 17.1398L14.6657 20.0553C14.7028 20.1627 14.7129 20.277 14.6952 20.3889C14.6775 20.5007 14.6325 20.6069 14.5639 20.6987C14.4953 20.7905 14.405 20.8653 14.3005 20.9169C14.196 20.9684 14.0803 20.9953 13.963 20.9953ZM9.06478 19.5671H12.9352L11.6515 15.8544C11.6005 15.7069 11.6008 15.5474 11.6524 15.4C11.704 15.2527 11.8041 15.1257 11.9374 15.0382C12.0707 14.9507 12.23 14.9076 12.3911 14.9153C12.5522 14.9231 12.7063 14.9813 12.8299 15.0812C13.4243 15.5606 14.1483 15.8667 14.9168 15.9634C15.6853 16.0602 16.4665 15.9436 17.1687 15.6273C17.8709 15.3111 18.465 14.8083 18.8812 14.178C19.2974 13.5477 19.5185 12.816 19.5185 12.0688C19.5185 8.75904 13.7072 4.31671 11 2.56811C8.29282 4.31671 2.48148 8.75904 2.48148 12.0688C2.48151 12.816 2.70261 13.5477 3.11882 14.178C3.53503 14.8083 4.12909 15.3111 4.83129 15.6273C5.53349 15.9436 6.31468 16.0602 7.0832 15.9634C7.85172 15.8667 8.57567 15.5606 9.1701 15.0812C9.29373 14.9813 9.44778 14.9231 9.60887 14.9153C9.76995 14.9076 9.92926 14.9507 10.0626 15.0382C10.1959 15.1257 10.296 15.2527 10.3476 15.4C10.3992 15.5474 10.3995 15.7069 10.3485 15.8544L9.06478 19.5671Z" fill="#C1C9E5"/>
</svg>
