<svg width="22" height="22" viewBox="0 0 22 22" fill="none" xmlns="http://www.w3.org/2000/svg">
<path d="M10.4013 6.45327L2.43367 7.71235C2.39307 7.71878 2.35555 7.73788 2.32647 7.76692L1.05765 9.03574C1.03938 9.05385 1.02488 9.07541 1.01499 9.09916C1.00509 9.12291 1 9.14839 1 9.17412C1 9.19985 1.00509 9.22532 1.01499 9.24907C1.02488 9.27282 1.03938 9.29438 1.05765 9.3125L4.30278 12.5576L3.38479 13.4776C3.36652 13.4957 3.35202 13.5172 3.34213 13.541C3.33223 13.5647 3.32714 13.5902 3.32714 13.616C3.32714 13.6417 3.33223 13.6672 3.34213 13.6909C3.35202 13.7147 3.36652 13.7362 3.38479 13.7543L5.61838 15.9879L4.73352 16.8747C4.70681 16.902 4.68868 16.9364 4.68138 16.9739C4.67409 17.0113 4.67794 17.0501 4.69247 17.0854C4.70699 17.1207 4.73155 17.1509 4.7631 17.1724C4.79465 17.1938 4.8318 17.2055 4.86995 17.2061C4.8956 17.2062 4.92103 17.2013 4.94478 17.1916C4.96852 17.1819 4.99012 17.1676 5.00833 17.1495L5.89319 16.2647L8.25736 18.6172C8.27548 18.6354 8.29704 18.6499 8.32079 18.6598C8.34454 18.6697 8.37001 18.6748 8.39574 18.6748C8.42147 18.6748 8.44695 18.6697 8.4707 18.6598C8.49445 18.6499 8.51601 18.6354 8.53412 18.6172L9.45407 17.6972L12.6992 20.9423C12.7173 20.9606 12.7389 20.9751 12.7626 20.985C12.7864 20.9949 12.8118 21 12.8376 21C12.8633 21 12.8888 20.9949 12.9125 20.985C12.9363 20.9751 12.9578 20.9606 12.976 20.9423L14.1454 19.7729L14.2506 19.6677C14.2797 19.6386 14.2988 19.6011 14.3052 19.5605L15.5487 11.6007L19.5033 7.64413C20.0601 7.0868 20.4583 6.39117 20.6571 5.62884C20.658 5.62041 20.658 5.61192 20.6571 5.6035C20.715 5.38421 20.7554 5.16067 20.7779 4.93498L20.9943 2.73843C21.0173 2.50544 20.9884 2.27023 20.9096 2.04977C20.8307 1.82931 20.704 1.62909 20.5384 1.46354C20.3729 1.29798 20.1726 1.17122 19.9522 1.0924C19.7317 1.01357 19.4965 0.984638 19.2635 1.00769L17.0728 1.21818C16.8486 1.24086 16.6264 1.2806 16.4082 1.33707H16.379C15.6158 1.53804 14.9201 1.93904 14.3637 2.4987L10.4013 6.45327ZM5.74312 11.1192L2.68899 8.06707L9.93937 6.92299L5.74312 11.1192ZM1.47085 9.17022L2.35765 8.28731L5.4761 11.3941L4.57955 12.2828L1.47085 9.17022ZM12.8278 20.5272L9.70939 17.4185L10.5962 16.5317L13.7146 19.6501L12.8278 20.5272ZM13.9349 19.3071L10.8827 16.2588L15.079 12.0626L13.9349 19.3071ZM17.1118 1.60214L19.3064 1.3858C19.4821 1.36889 19.6593 1.39105 19.8255 1.4507C19.9916 1.51034 20.1424 1.606 20.2673 1.7308C20.3921 1.85561 20.4877 2.00647 20.5474 2.17259C20.607 2.33871 20.6292 2.51596 20.6123 2.69165L20.3959 4.88626C20.3959 4.97396 20.3725 5.06167 20.3589 5.14937L16.8506 1.64112C16.9364 1.62943 17.028 1.61384 17.1118 1.60604V1.60214ZM16.3985 1.73857L20.2595 5.5996C20.0696 6.26204 19.7148 6.86554 19.2284 7.35372L8.386 18.204L6.16995 15.9879L11.7773 10.3806C11.8136 10.344 11.834 10.2946 11.834 10.2432C11.834 10.1917 11.8136 10.1423 11.7773 10.1058C11.7592 10.0875 11.7376 10.073 11.7139 10.0631C11.6901 10.0532 11.6647 10.0481 11.6389 10.0481C11.6132 10.0481 11.5877 10.0532 11.564 10.0631C11.5402 10.073 11.5187 10.0875 11.5005 10.1058L5.89319 15.7131L3.79799 13.616L5.87955 11.5324L14.6385 2.77351C15.1287 2.28681 15.7342 1.93212 16.3985 1.74247V1.73857Z" fill="#C1C9E5" stroke="#C1C9E5" stroke-width="0.5"/>
<path d="M3.40748 18.9987C3.50325 18.999 3.59785 18.9777 3.68425 18.9364L7.48875 17.1627C7.80828 17.0159 8.08758 16.794 8.30282 16.5159C8.51807 16.2379 8.66289 15.9119 8.72492 15.5657C8.78696 15.2196 8.76438 14.8636 8.65911 14.5281C8.55384 14.1925 8.369 13.8874 8.12034 13.6388C7.87169 13.3901 7.56659 13.2053 7.23107 13.1C6.89555 12.9948 6.53954 12.9722 6.19341 13.0342C5.84727 13.0962 5.52127 13.2411 5.24319 13.4563C4.96512 13.6716 4.74321 13.9508 4.59639 14.2704L2.82278 18.0749C2.77666 18.1735 2.75612 18.2822 2.76303 18.3909C2.76994 18.4996 2.80409 18.6048 2.86233 18.6968C2.92057 18.7888 3.00103 18.8647 3.0963 18.9175C3.19157 18.9702 3.29858 18.9982 3.40748 18.9987ZM3.17555 18.2406L4.94332 14.4341C5.06384 14.1718 5.24644 13.9428 5.47532 13.7669C5.7042 13.591 5.97248 13.4735 6.25696 13.4245C6.36324 13.4067 6.47079 13.3976 6.57855 13.3972C6.83934 13.3992 7.09655 13.4581 7.33229 13.5696C7.56802 13.6811 7.77663 13.8427 7.94358 14.0431C8.11054 14.2434 8.23184 14.4777 8.29903 14.7297C8.36623 14.9817 8.37771 15.2453 8.33268 15.5022C8.28391 15.7865 8.16669 16.0546 7.99113 16.2835C7.81558 16.5123 7.58697 16.695 7.32503 16.8158L3.51858 18.5836C3.47057 18.6065 3.41663 18.614 3.3642 18.605C3.31176 18.596 3.2634 18.571 3.22578 18.5333C3.18817 18.4957 3.16313 18.4474 3.15414 18.3949C3.14514 18.3425 3.15262 18.2886 3.17555 18.2406Z" fill="#C1C9E5" stroke="#C1C9E5" stroke-width="0.5"/>
<path d="M15.8936 8.14377C16.3654 8.14389 16.8225 7.98042 17.1872 7.68122C17.5519 7.38202 17.8016 6.96561 17.8936 6.50295C17.9857 6.0403 17.9145 5.56003 17.6921 5.14401C17.4697 4.728 17.1099 4.40197 16.6741 4.2215C16.2383 4.04103 15.7533 4.01729 15.3019 4.15432C14.8506 4.29135 14.4607 4.58067 14.1987 4.97298C13.9367 5.36529 13.8189 5.8363 13.8654 6.30573C13.9118 6.77517 14.1196 7.21398 14.4533 7.54737C14.6423 7.73675 14.8668 7.88693 15.114 7.98928C15.3611 8.09163 15.6261 8.14413 15.8936 8.14377ZM14.7242 4.94152C14.9552 4.71191 15.249 4.55585 15.5686 4.49302C15.8882 4.4302 16.2192 4.46343 16.5199 4.58852C16.8207 4.71361 17.0776 4.92495 17.2583 5.1959C17.4391 5.46684 17.5355 5.78524 17.5355 6.11094C17.5355 6.43663 17.4391 6.75504 17.2583 7.02598C17.0776 7.29692 16.8207 7.50827 16.5199 7.63336C16.2192 7.75845 15.8882 7.79167 15.5686 7.72885C15.249 7.66603 14.9552 7.50997 14.7242 7.28035C14.569 7.12753 14.4459 6.94527 14.362 6.74426C14.2781 6.54325 14.2352 6.32752 14.2357 6.10971C14.2363 5.8919 14.2803 5.67639 14.3652 5.4758C14.4501 5.2752 14.5741 5.09357 14.7301 4.94152H14.7242Z" fill="#C1C9E5" stroke="#C1C9E5" stroke-width="0.5"/>
</svg>
