<svg width="25" height="24" viewBox="0 0 25 24" fill="none" xmlns="http://www.w3.org/2000/svg">
<path d="M2.20001 7.91998C2.20001 4.83998 3.96001 3.52002 6.60001 3.52002H15.39C17.63 3.52002 19.24 4.47001 19.67 6.64001C19.75 7.03001 19.79 7.44998 19.79 7.91998V13.07C19.79 16.15 18.03 17.47 15.39 17.47H6.60001C6.15001 17.47 5.72001 17.43 5.32001 17.34C5.07001 17.3 4.82999 17.23 4.60999 17.15C3.10999 16.59 2.20001 15.29 2.20001 13.07V12" stroke="white" stroke-width="1.5" stroke-miterlimit="10" stroke-linecap="round" stroke-linejoin="round"/>
<path d="M22.8 15.01V16.07C22.8 19.15 21.04 20.47 18.4 20.47H9.60999C8.86999 20.47 8.2 20.37 7.62 20.15C6.43 19.71 5.61999 18.8 5.32999 17.34C5.72999 17.43 6.15999 17.47 6.60999 17.47H15.4C18.04 17.47 19.8 16.15 19.8 13.07V7.91998C19.8 7.44998 19.76 7.03001 19.68 6.64001C21.59 7.03001 22.8 8.36998 22.8 10.92" stroke="white" stroke-width="1.5" stroke-miterlimit="10" stroke-linecap="round" stroke-linejoin="round"/>
<path d="M13.6404 10.4999C13.6404 9.03988 12.4604 7.85986 11.0004 7.85986C9.54037 7.85986 8.36035 9.03988 8.36035 10.4999C8.36035 11.9599 9.54037 13.1399 11.0004 13.1399" stroke="white" stroke-width="1.5" stroke-miterlimit="10" stroke-linecap="round" stroke-linejoin="round"/>
<path d="M5.28027 8.2998V12.6998" stroke="white" stroke-width="1.5" stroke-miterlimit="10" stroke-linecap="round" stroke-linejoin="round"/>
<path d="M16.7197 8.2998V12.6998" stroke="white" stroke-width="1.5" stroke-miterlimit="10" stroke-linecap="round" stroke-linejoin="round"/>
</svg>
