<svg width="22" height="22" viewBox="0 0 22 22" fill="none" xmlns="http://www.w3.org/2000/svg">
<path d="M17.814 8.51533C17.3212 8.7767 16.9219 9.37698 16.9219 9.85638C16.9219 10.3355 17.3212 10.5123 17.814 10.2513C18.3064 9.98997 18.7061 9.38935 18.7061 8.91021C18.7061 8.43081 18.3064 8.25395 17.814 8.51533Z" fill="#C1C9E5"/>
<path d="M17.814 11.3414C17.3212 11.6028 16.9219 12.2031 16.9219 12.6825C16.9219 13.1619 17.3212 13.3387 17.814 13.0774C18.3064 12.8161 18.7061 12.2155 18.7061 11.7363C18.7061 11.2572 18.3064 11.0801 17.814 11.3414Z" fill="#C1C9E5"/>
<path d="M13.4781 12.7298C13.9705 12.4685 14.3702 11.8682 14.3702 11.3887C14.3702 10.9093 13.9705 10.7325 13.4781 10.9938C12.985 11.2552 12.5859 11.8555 12.5859 12.3349C12.5859 12.8144 12.985 12.9912 13.4781 12.7298Z" fill="#C1C9E5"/>
<path d="M17.814 14.1677C17.3212 14.4287 16.9219 15.0293 16.9219 15.5085C16.9219 15.9879 17.3212 16.1647 17.814 15.9033C18.3064 15.642 18.7061 15.0417 18.7061 14.5623C18.7061 14.0831 18.3064 13.9063 17.814 14.1677Z" fill="#C1C9E5"/>
<path d="M13.4781 16.646C12.985 16.9076 12.5859 17.508 12.5859 17.9871C12.5859 18.4665 12.985 18.6433 13.4781 18.3819C13.9705 18.1209 14.3702 17.5203 14.3702 17.0409C14.3702 16.5617 13.9705 16.3849 13.4781 16.646Z" fill="#C1C9E5"/>
<path d="M13.5324 13.82C13.0397 14.0814 12.6406 14.6817 12.6406 15.1611C12.6406 15.6406 13.0397 15.8174 13.5324 15.556C14.0252 15.2947 14.4249 14.6944 14.4249 14.2149C14.4249 13.7355 14.0252 13.5586 13.5324 13.82Z" fill="#C1C9E5"/>
<path d="M19.4466 4.53759L12.3338 0.386246C11.8926 0.128648 11.396 0 10.9 0C10.4043 0 9.90742 0.128648 9.4665 0.386246L2.35343 4.53759C1.51382 5.02769 1 5.91039 1 6.86293V15.1371C1 16.0896 1.51378 16.9723 2.35343 17.4624L9.46655 21.6138C9.90742 21.871 10.4043 22 10.9 22C11.396 22 11.8926 21.871 12.3338 21.6138L19.4466 17.4624C20.2859 16.9723 20.8 16.0896 20.8 15.1371V6.86293C20.8 5.91039 20.2859 5.02769 19.4466 4.53759ZM10.661 21.1721C10.3954 21.1401 10.1345 21.0553 9.89642 20.9165L2.7833 16.7652C2.19538 16.4219 1.83576 15.804 1.83576 15.1371V6.86293C1.83576 6.60417 1.89061 6.35323 1.99086 6.1224L10.6611 11.1824L10.661 21.1721ZM2.22916 5.71974C2.37803 5.52793 2.56479 5.36233 2.7833 5.2348L9.89642 1.08346C10.2054 0.90316 10.5525 0.813184 10.9 0.813184C11.2475 0.813184 11.5944 0.903203 11.9036 1.08346L19.0167 5.2348C19.2352 5.36233 19.4219 5.52789 19.5708 5.71974L10.9 10.78L2.22916 5.71974ZM19.964 15.1371C19.964 15.804 19.6046 16.4219 19.0167 16.7652L11.9036 20.9165C11.6655 21.0553 11.4049 21.1401 11.139 21.1721V11.1824L19.8092 6.12245C19.9094 6.35323 19.964 6.60421 19.964 6.86297V15.1371H19.964Z" fill="#C1C9E5"/>
<path d="M11.7612 1.91928C11.3272 1.6069 10.6118 1.59878 10.1638 1.90197C9.71583 2.20485 9.70457 2.70449 10.1386 3.01692C10.573 3.3296 11.2878 3.33768 11.7358 3.03454C12.1835 2.73131 12.1953 2.23222 11.7612 1.91928Z" fill="#C1C9E5"/>
<path d="M16.4796 4.97439C16.0455 4.6614 15.3304 4.65358 14.8824 4.95647C14.4348 5.25936 14.4232 5.759 14.8573 6.07142C15.2916 6.38411 16.0064 6.39193 16.4544 6.0893C16.9024 5.78581 16.9139 5.28707 16.4796 4.97439Z" fill="#C1C9E5"/>
<path d="M6.90963 4.88039C6.47557 4.56766 5.7605 4.55988 5.31252 4.86277C4.86423 5.16596 4.85297 5.665 5.28704 5.97772C5.72106 6.29071 6.43622 6.29823 6.88446 5.99534C7.33209 5.69215 7.34366 5.19311 6.90963 4.88039Z" fill="#C1C9E5"/>
<path d="M11.6243 7.93507C11.19 7.62235 10.4749 7.61457 10.0272 7.91746C9.57924 8.22064 9.56767 8.71968 10.002 9.03237C10.4363 9.34535 11.1508 9.35317 11.5991 9.04998C12.0468 8.7471 12.0584 8.24806 11.6243 7.93507Z" fill="#C1C9E5"/>
<path d="M11.6719 4.9465C11.2524 4.64448 10.5619 4.6367 10.1287 4.92949C9.69582 5.22228 9.68518 5.7046 10.1044 6.00663C10.5239 6.30861 11.2147 6.31643 11.6478 6.02365C12.0804 5.73086 12.0914 5.24853 11.6719 4.9465Z" fill="#C1C9E5"/>
<path d="M3.54024 10.6693C4.033 10.9306 4.43267 10.7535 4.43267 10.2744C4.43267 9.79493 4.033 9.19461 3.54024 8.93327C3.04784 8.67194 2.64844 8.84876 2.64844 9.3282C2.64844 9.8073 3.04784 10.4079 3.54024 10.6693Z" fill="#C1C9E5"/>
<path d="M8.51681 18.1574C9.00952 18.4187 9.40861 18.2419 9.40861 17.7625C9.40861 17.2833 9.00952 16.6828 8.51681 16.4214C8.02405 16.1603 7.625 16.3372 7.625 16.8163C7.625 17.2958 8.02405 17.8961 8.51681 18.1574Z" fill="#C1C9E5"/>
<path d="M6.03243 14.4151C6.52515 14.6764 6.9245 14.4996 6.9245 14.0202C6.9245 13.541 6.52515 12.9405 6.03243 12.6794C5.53967 12.418 5.14062 12.5949 5.14062 13.074C5.14062 13.5534 5.53967 14.1537 6.03243 14.4151Z" fill="#C1C9E5"/>
</svg>
