<svg width="68" height="45" viewBox="0 0 68 45" fill="none" xmlns="http://www.w3.org/2000/svg">
<rect x="0.5" width="67.5" height="45" rx="4" fill="#10202D"/>
<path d="M28.2256 18.0215C28.9588 18.0215 29.7972 18.1217 30.4258 18.5244V20.5401C29.9019 19.9356 29.0638 19.5322 28.2256 19.5322C26.5493 19.6331 25.1872 21.0436 25.292 22.6553V22.8565C25.292 24.4683 26.6547 25.6778 28.3311 25.6778C29.169 25.6776 29.902 25.2742 30.4258 24.6699V26.6846C29.6925 26.9867 28.9592 27.1885 28.1211 27.1885C25.5018 27.1885 23.4064 25.073 23.4062 22.5547C23.4062 19.9356 25.5016 17.8202 28.2256 18.0215ZM44.6768 24.0635L47.1914 18.0195H49.0771L45.2002 27.1865H44.2578L40.3809 18.0195H42.2666L44.6768 24.0635ZM19.8438 17.8194C20.7866 17.8194 21.7295 18.2219 22.4629 18.8262L21.5205 20.0352C21.1015 19.6323 20.5774 19.3303 20.0537 19.3301C19.4251 19.2294 18.9007 19.7335 18.7959 20.3379C18.7961 20.8412 19.1108 21.0425 20.1582 21.4453C22.2535 22.2512 22.777 22.8558 22.8818 24.0645V24.3672C22.7769 25.9788 21.4154 27.1875 19.7393 27.0869C18.482 27.0869 17.2244 26.4822 16.5957 25.374L17.748 24.2666C18.0624 24.9715 18.7959 25.4745 19.6338 25.4746H19.7393C20.3678 25.4744 20.9961 24.8701 20.9961 24.1651C20.9959 23.7624 20.7868 23.4602 20.4727 23.2588C20.0536 23.0573 19.6339 22.8556 19.2148 22.7549C17.5389 22.2513 17.0148 21.5464 17.0146 20.3379V20.2363C17.1196 18.8262 18.377 17.7186 19.8438 17.8194ZM8.94824 18.0195C11.4627 18.1204 13.4533 20.1352 13.3486 22.5528C13.3486 23.8623 12.7196 25.0709 11.6719 25.9776C10.7289 26.6827 9.57635 27.0861 8.42383 26.9854H5.80469V18.0195H8.94824ZM15.8633 26.9854H14.082V18.0195H15.8633V26.9854ZM54.9434 19.5303H51.6953V21.5459H54.8389V23.0567H51.6953V25.4746H54.9434V26.9854H49.9141V18.0195H54.9434V19.5303ZM58.7168 18.0195C60.8122 18.0195 61.9648 18.9262 61.9648 20.6387C62.0696 21.9483 61.1264 23.0563 59.8691 23.2578L62.6982 26.9854H60.498L58.0889 23.3584H57.8789V26.9854H56.0977V18.0195H58.7168ZM10.5195 20.2363C9.89088 19.7326 8.94754 19.4305 8.10938 19.5313H7.58594V25.4756H8.10938C8.94758 25.5764 9.89088 25.2733 10.5195 24.7695C11.1479 24.1652 11.4628 23.3596 11.4629 22.4531C11.4629 21.6472 11.1482 20.8408 10.5195 20.2363ZM57.8789 22.1504H58.4023C59.5549 22.1504 60.0791 21.646 60.0791 20.7393C60.0789 19.9335 59.5547 19.4297 58.4023 19.4297H57.8789V22.1504Z" fill="#C1C9E5"/>
<path fill-rule="evenodd" clip-rule="evenodd" d="M35.7708 17.8125C33.1514 17.8125 30.9512 19.8273 30.9512 22.4465C30.9512 24.9649 33.0467 27.0804 35.7708 27.1811C38.495 27.2819 40.5905 25.1664 40.6953 22.5472C40.5905 19.928 38.495 17.8125 35.7708 17.8125V17.8125Z" fill="#C1C9E5"/>
</svg>
