<svg width="46" height="45" viewBox="0 0 46 45" fill="none" xmlns="http://www.w3.org/2000/svg">
<path d="M22.5977 45C35.0241 45 45.0977 34.9264 45.0977 22.5C45.0977 10.0736 35.0241 0 22.5977 0C10.1712 0 0.0976562 10.0736 0.0976562 22.5C0.0976562 34.9264 10.1712 45 22.5977 45Z" fill="#10202D"/>
<path d="M21.7451 11.1415C23.3198 11.1414 33.7383 10.8095 33.7383 23.1435C33.738 35.6384 22.9192 34.7562 22.8438 34.7499H15.0947V24.2343H12.3633V21.6581H15.0947V11.1415H21.7451ZM19.459 21.6561H24.2686V24.2323H19.459V30.3847H22.666C23.4909 30.3847 29.4301 30.4788 29.4209 23.2265C29.4116 15.9736 23.659 15.5038 22.5156 15.5038H19.459V21.6561Z" fill="#C1C9E5"/>
</svg>
