<svg width="146" height="40" viewBox="0 0 146 40" fill="none" xmlns="http://www.w3.org/2000/svg">
<path d="M30.1413 15.5386L36.0897 18.2149C35.9499 18.1255 33.1214 16.2847 32.25 14.8299C31.3518 13.3406 31.4172 12.2372 32.1757 11.1713C32.9341 10.1054 34.8078 9.4342 37.66 9.60993C40.5122 9.78854 43.644 10.624 45.9996 12.6693C45.9996 12.6693 43.995 9.22678 38.8854 8.2646C36.8925 7.86122 34.8294 7.91975 32.8643 8.4354C30.8992 8.95105 29.0877 9.90923 27.5776 11.2318C26.9768 11.7619 26.6675 12.2631 26.5664 12.7471C26.611 14.2163 30.1383 15.5415 30.1383 15.5415L30.1413 15.5386Z" fill="url(#paint0_linear_0_1764)"/>
<path d="M30.1413 15.5386L36.0897 18.2149C35.9499 18.1255 33.1214 16.2847 32.25 14.8299C31.3518 13.3406 31.4172 12.2372 32.1757 11.1713C32.9341 10.1054 34.8078 9.4342 37.66 9.60993C40.5122 9.78854 43.644 10.624 45.9996 12.6693C45.9996 12.6693 43.995 9.22678 38.8854 8.2646C36.8925 7.86122 34.8294 7.91975 32.8643 8.4354C30.8992 8.95105 29.0877 9.90923 27.5776 11.2318C26.9768 11.7619 26.6675 12.2631 26.5664 12.7471C26.611 14.2163 30.1383 15.5415 30.1383 15.5415L30.1413 15.5386Z" fill="url(#paint1_linear_0_1764)"/>
<path d="M32.1756 28.8598C31.4143 27.7939 31.3518 26.6876 32.25 25.2011C33.1452 23.706 36.0956 21.8105 36.0956 21.8105L30.1413 24.4896C30.1413 24.4896 26.611 25.8176 26.5664 27.284C26.6675 27.7651 26.9768 28.2663 27.5776 28.7964C29.0876 30.1193 30.8989 31.0779 32.864 31.594C34.8291 32.1101 36.8922 32.1692 38.8854 31.7665C43.995 30.8072 45.9996 27.3617 45.9996 27.3617C43.65 29.4071 40.5122 30.2425 37.66 30.4183C34.8048 30.5911 32.9341 29.9228 32.1756 28.8569V28.8598Z" fill="url(#paint2_linear_0_1764)"/>
<path d="M32.1756 28.8598C31.4143 27.7939 31.3518 26.6876 32.25 25.2011C33.1452 23.706 36.0956 21.8105 36.0956 21.8105L30.1413 24.4896C30.1413 24.4896 26.611 25.8176 26.5664 27.284C26.6675 27.7651 26.9768 28.2663 27.5776 28.7964C29.0876 30.1193 30.8989 31.0779 32.864 31.594C34.8291 32.1101 36.8922 32.1692 38.8854 31.7665C43.995 30.8072 45.9996 27.3617 45.9996 27.3617C43.65 29.4071 40.5122 30.2425 37.66 30.4183C34.8048 30.5911 32.9341 29.9228 32.1756 28.8569V28.8598Z" fill="url(#paint3_linear_0_1764)"/>
<path d="M30.1422 24.4892L36.0965 21.8101C36.0965 21.8101 37.7888 20.9401 37.7888 20.073V20.0154V19.9577C37.7888 19.0935 36.0965 18.2206 36.0965 18.2206L36.0905 18.2177L30.1422 15.5415C30.1422 15.5415 26.6118 14.2163 26.5643 12.75C26.2817 14.0838 27.5903 15.2361 28.6759 16.2185C30.1184 17.5379 30.7578 18.8429 30.7489 20.0182C30.7608 21.1936 30.1184 22.4986 28.6729 23.818C27.5933 24.7975 26.2817 25.9555 26.5643 27.2865C26.6118 25.8173 30.1392 24.4892 30.1392 24.4892H30.1422Z" fill="url(#paint4_linear_0_1764)"/>
<path d="M45.9562 23.8159C46.3137 23.813 46.6705 23.7849 47.0239 23.7319C47.3831 23.6849 47.7315 23.5794 48.0546 23.4199C48.4496 23.2219 48.6533 22.9219 48.6533 22.5199C48.6533 22.3399 48.5977 22.1659 48.4928 22.0039C48.3976 21.8504 48.2665 21.7209 48.1102 21.6259C47.511 21.9398 46.8405 22.1028 46.1598 22.0999C45.7402 22.0999 45.3698 22.0219 45.0489 21.8779C44.8991 21.8149 44.7645 21.7219 44.6539 21.6051C44.5434 21.4883 44.4593 21.3503 44.407 21.1999L47.925 20.7019C48.2459 20.6599 48.499 20.5519 48.678 20.3899C48.8631 20.2279 48.9495 19.9939 48.9495 19.6879C48.9522 19.3001 48.8693 18.9163 48.7064 18.5623C48.5435 18.2084 48.3044 17.8925 48.0052 17.636C47.6886 17.3745 47.3243 17.173 46.9313 17.042C46.0608 16.7606 45.121 16.7543 44.2466 17.024C43.8189 17.1494 43.424 17.3627 43.0886 17.6494C42.7532 17.9362 42.4851 18.2897 42.3024 18.6859C42.1049 19.1119 42 19.6219 42 20.2159C42 20.8159 42.1049 21.3439 42.3086 21.7939C42.5123 22.2439 42.79 22.6219 43.148 22.9159C43.4998 23.2159 43.9195 23.4379 44.4009 23.5819C44.8761 23.7319 45.4007 23.8099 45.9562 23.8099V23.8159ZM44.2342 19.6939C44.2466 19.5499 44.2774 19.4119 44.3268 19.2739C44.3816 19.127 44.4668 18.9926 44.5772 18.8791C44.6876 18.7656 44.8209 18.6753 44.9687 18.6139C45.1353 18.5419 45.3328 18.5059 45.5612 18.5059C45.8163 18.4848 46.0706 18.5557 46.2755 18.7051C46.4803 18.8545 46.6215 19.0719 46.6721 19.3159L44.2342 19.6939ZM56.3928 23.7079C56.7564 23.7087 57.1189 23.6684 57.4729 23.5879V19.3579C57.4729 18.5659 57.1828 17.948 56.6088 17.498C56.0225 17.06 55.2016 16.838 54.1277 16.838C53.5291 16.838 52.9859 16.898 52.4984 17.036C52.0642 17.1463 51.6515 17.3247 51.2763 17.564C51.0912 17.684 50.9369 17.828 50.832 17.9839C50.7148 18.1605 50.6566 18.368 50.6653 18.5779V22.6279C50.6653 22.8499 50.6962 23.0299 50.7579 23.1679C50.8196 23.3119 50.906 23.4199 51.0233 23.5039C51.1344 23.5819 51.2702 23.6359 51.443 23.6659C51.9907 23.7339 52.5464 23.7075 53.0847 23.5879V18.9019C53.2205 18.8119 53.3809 18.7399 53.5661 18.6979C53.7512 18.6499 53.9364 18.6319 54.1216 18.6319C54.4116 18.6319 54.6338 18.6919 54.8005 18.8239C54.9671 18.9559 55.0473 19.1599 55.0473 19.4419V22.6219C55.0473 22.8499 55.0844 23.0299 55.1461 23.1739C55.2078 23.3119 55.2942 23.4199 55.4053 23.5039C55.5226 23.5819 55.6645 23.6359 55.825 23.6659C55.9916 23.6899 56.183 23.7079 56.3928 23.7079ZM63.1448 23.8159C63.7188 23.8159 64.2188 23.7499 64.657 23.6179C65.089 23.4859 65.447 23.3359 65.7247 23.1679C66.1444 22.9159 66.3542 22.5739 66.3542 22.1479V15.758C66.3542 15.536 66.3234 15.356 66.2678 15.218C66.2061 15.074 66.1259 14.966 66.0086 14.882C65.8838 14.7966 65.74 14.7411 65.5889 14.72C65.0345 14.6433 64.4698 14.676 63.9287 14.816V17C63.6066 16.8936 63.2689 16.8389 62.9288 16.838C62.4104 16.838 61.9228 16.91 61.4723 17.048C61.0299 17.1716 60.6222 17.3914 60.28 17.6908C59.9379 17.9902 59.6702 18.3612 59.4973 18.7759C59.3121 19.2139 59.2195 19.7299 59.2195 20.3239C59.2195 20.8639 59.3059 21.3439 59.4788 21.7759C59.6501 22.2056 59.9206 22.5913 60.2695 22.9033C60.6183 23.2154 61.0361 23.4455 61.4908 23.5759C61.9784 23.7379 62.5277 23.8159 63.1448 23.8159ZM63.1634 22.0039C62.6758 22.0039 62.3055 21.8599 62.0524 21.5839C61.7932 21.2959 61.6636 20.8759 61.6636 20.3179C61.6636 19.7479 61.8055 19.3279 62.0771 19.0459C62.3548 18.7699 62.7498 18.6259 63.2621 18.6259C63.5275 18.6259 63.7559 18.6859 63.941 18.7939V21.7639C63.867 21.8239 63.762 21.8839 63.6263 21.9319C63.4843 21.9799 63.33 22.0039 63.1634 22.0039ZM71.841 23.8159C72.3965 23.8159 72.9088 23.7379 73.3655 23.5819C73.8038 23.4442 74.2051 23.2134 74.5403 22.9062C74.8755 22.599 75.1362 22.2232 75.3034 21.8059C75.4824 21.3739 75.575 20.8759 75.575 20.3179C75.575 19.7959 75.4824 19.3159 75.3034 18.8839C75.1344 18.465 74.8734 18.087 74.5387 17.7761C74.204 17.4652 73.8036 17.229 73.3655 17.084C72.8771 16.9111 72.3607 16.8258 71.841 16.832C71.2855 16.832 70.7733 16.916 70.3166 17.072C69.8784 17.217 69.478 17.4532 69.1433 17.7641C68.8086 18.075 68.5476 18.453 68.3786 18.8719C68.1996 19.3039 68.1132 19.7839 68.1132 20.3119C68.1132 20.8519 68.1996 21.3439 68.3786 21.7759C68.5476 22.1948 68.8086 22.5729 69.1433 22.8837C69.478 23.1946 69.8784 23.4308 70.3166 23.5759C70.7733 23.7319 71.2794 23.8159 71.841 23.8159ZM71.8534 22.0159C71.4584 22.0159 71.1436 21.8719 70.9276 21.5779C70.6795 21.2037 70.5606 20.7623 70.5881 20.3179C70.5881 19.7779 70.6992 19.3579 70.9152 19.0699C71.1312 18.7759 71.4398 18.6319 71.841 18.6319C72.2422 18.6319 72.5508 18.7759 72.7668 19.0699C72.9828 19.3639 73.0939 19.7779 73.0939 20.3179C73.0939 20.8579 72.989 21.2779 72.773 21.5779C72.5631 21.8719 72.2545 22.0159 71.8534 22.0159ZM78.6424 23.7079C79.006 23.7087 79.3685 23.6684 79.7225 23.5879V18.9799C79.8459 18.9259 79.9941 18.8779 80.173 18.8419C80.5602 18.7566 80.9516 18.6906 81.3457 18.6439C81.5555 18.6259 81.7592 18.6139 81.9629 18.6139C82.0184 18.5179 82.0616 18.4099 82.0987 18.2839C82.1419 18.1639 82.1604 18.0439 82.1604 17.912C82.1604 17.534 82.0246 17.264 81.7592 17.096C81.4306 16.9156 81.0559 16.8303 80.6791 16.85C80.1294 16.8468 79.5823 16.9237 79.0559 17.078C78.7967 17.15 78.5622 17.234 78.3338 17.33C78.1358 17.4106 77.9492 17.5155 77.7784 17.642C77.6294 17.7493 77.5091 17.8897 77.4275 18.0515C77.3459 18.2133 77.3054 18.3918 77.3093 18.5719H77.3031V22.6279C77.3031 22.8499 77.334 23.0299 77.3957 23.1679C77.4574 23.3119 77.5438 23.4199 77.6611 23.5039C77.7722 23.5819 77.908 23.6359 78.0808 23.6659C78.2474 23.6899 78.4326 23.7079 78.6362 23.7079H78.6424ZM84.8884 25.9998C85.2569 26.0029 85.6242 25.9586 85.9808 25.8678V23.6239C86.3326 23.7439 86.7152 23.8039 87.1226 23.8039C87.6657 23.8039 88.1533 23.7259 88.5977 23.5819C89.0207 23.4452 89.4067 23.2179 89.7271 22.9168C90.0476 22.6156 90.2944 22.2483 90.4492 21.8419C90.6303 21.3576 90.7182 20.8451 90.7084 20.3299C90.7084 19.7299 90.6097 19.2079 90.4122 18.7699C90.2265 18.3441 89.9413 17.9663 89.5792 17.6663C89.2171 17.3664 88.788 17.1526 88.3261 17.042C87.8104 16.8987 87.2762 16.828 86.7399 16.832C86.1968 16.832 85.7092 16.892 85.271 16.994C84.839 17.102 84.4687 17.246 84.1724 17.426C83.9873 17.552 83.833 17.696 83.728 17.846C83.6096 18.0242 83.5514 18.234 83.5614 18.4459V24.9199C83.5614 25.1479 83.5923 25.3279 83.6478 25.4659C83.7095 25.6039 83.7898 25.7179 83.9009 25.7959C84.0181 25.8798 84.1601 25.9338 84.3205 25.9578C84.4872 25.9878 84.6785 25.9998 84.8884 25.9998ZM86.7646 21.9919C86.6165 21.9919 86.4684 21.9739 86.3326 21.9319C86.2053 21.8989 86.0813 21.8547 85.9623 21.7999V18.8299C86.2234 18.6919 86.5168 18.6216 86.814 18.6259C87.2769 18.6259 87.6287 18.7699 87.8694 19.0459C88.1162 19.3279 88.2335 19.7539 88.2335 20.3299C88.2335 21.4399 87.7398 21.9919 86.7646 21.9919ZM98.1949 23.7079C98.5585 23.7087 98.921 23.6684 99.275 23.5879V19.4959C99.275 18.6139 99.0096 17.948 98.485 17.504C97.8617 17.0264 97.0801 16.7874 96.2878 16.832C95.9792 16.832 95.7015 16.862 95.4546 16.922C95.2016 16.982 95.0102 17.03 94.8868 17.078V15.758C94.8868 15.53 94.8559 15.35 94.7942 15.206C94.7401 15.0752 94.6505 14.9612 94.535 14.876C94.4102 14.7906 94.2664 14.7351 94.1153 14.714C93.7229 14.6492 93.322 14.6512 92.9303 14.72L92.4674 14.798V22.6279C92.4674 22.8499 92.4983 23.0299 92.56 23.1679C92.6217 23.3119 92.7081 23.4199 92.8254 23.5039C92.9365 23.5819 93.0784 23.6359 93.2451 23.6659C93.7928 23.7339 94.3485 23.7075 94.8868 23.5879V18.8599C95.182 18.7099 95.5103 18.6317 95.8434 18.6319C96.1273 18.6319 96.368 18.7039 96.5655 18.8539C96.7569 19.0039 96.8556 19.2619 96.8556 19.6339V22.6279C96.8556 22.8499 96.8865 23.0299 96.9482 23.1679C97.0099 23.3119 97.0963 23.4199 97.2136 23.5039C97.3247 23.5819 97.4605 23.6359 97.6333 23.6659C97.7999 23.6899 97.9851 23.7079 98.1887 23.7079H98.1949ZM102.589 16.43C102.984 16.43 103.305 16.31 103.546 16.076C103.793 15.842 103.916 15.554 103.916 15.212C103.916 14.87 103.793 14.582 103.546 14.348C103.305 14.114 102.99 14 102.589 14C102.188 14 101.867 14.12 101.626 14.348C101.38 14.588 101.262 14.87 101.262 15.212C101.262 15.554 101.386 15.842 101.626 16.076C101.873 16.316 102.188 16.43 102.589 16.43ZM102.713 23.7079C102.923 23.7079 103.132 23.6899 103.33 23.6599L103.799 23.5819V18.0919C103.799 17.864 103.768 17.684 103.706 17.546C103.652 17.4123 103.56 17.296 103.441 17.21C103.316 17.1246 103.172 17.0691 103.021 17.048C102.629 16.9851 102.228 16.9892 101.836 17.06L101.373 17.132V22.6279C101.373 22.8499 101.404 23.0299 101.466 23.1679C101.528 23.3119 101.62 23.4199 101.731 23.5039C101.849 23.5819 101.984 23.6359 102.151 23.6659C102.318 23.6899 102.509 23.7079 102.713 23.7079ZM111.606 23.7079C111.972 23.7091 112.337 23.6688 112.693 23.5879V19.3579C112.693 18.5659 112.403 17.948 111.822 17.498C111.242 17.06 110.415 16.838 109.341 16.838C108.749 16.838 108.2 16.898 107.712 17.036C107.28 17.1469 106.869 17.3253 106.496 17.564C106.311 17.684 106.157 17.828 106.046 17.9839C105.931 18.1612 105.875 18.3686 105.885 18.5779V22.6279C105.885 22.8499 105.916 23.0299 105.978 23.1679C106.039 23.3119 106.126 23.4199 106.237 23.5039C106.354 23.5819 106.496 23.6359 106.663 23.6659C107.21 23.7339 107.766 23.7075 108.304 23.5879V18.9019C108.44 18.8119 108.595 18.7399 108.78 18.6979C108.965 18.6499 109.15 18.6319 109.341 18.6319C109.631 18.6319 109.854 18.6919 110.02 18.8239C110.187 18.9559 110.267 19.1599 110.267 19.4419V22.6219C110.267 22.8499 110.298 23.0299 110.36 23.1739C110.421 23.3119 110.514 23.4199 110.625 23.5039C110.742 23.5819 110.878 23.6359 111.045 23.6659C111.211 23.6899 111.397 23.7079 111.606 23.7079ZM117.698 23.8159C118.815 23.8159 119.685 23.6359 120.303 23.2879C120.488 23.1799 120.654 23.0479 120.796 22.9039C120.932 22.7539 121 22.5619 121 22.3279V19.3039C121 18.8839 120.92 18.5179 120.753 18.2059C120.594 17.8983 120.359 17.6342 120.068 17.438C119.74 17.2219 119.374 17.0672 118.988 16.982C118.527 16.878 118.054 16.8277 117.581 16.832C117.248 16.832 116.902 16.856 116.519 16.904C116.149 16.946 115.822 17.024 115.544 17.12C115.297 17.216 115.112 17.336 114.995 17.48C114.878 17.618 114.822 17.804 114.822 18.0379C114.823 18.2082 114.863 18.3762 114.939 18.5298C115.014 18.6833 115.124 18.8186 115.26 18.9259C115.89 18.6872 116.559 18.5592 117.235 18.5479C117.698 18.5479 118.044 18.6079 118.284 18.7159C118.531 18.8299 118.655 19.0159 118.655 19.2799V19.3699L116.785 19.5619C115.97 19.6399 115.365 19.8499 114.976 20.1799C114.587 20.5159 114.39 20.9899 114.39 21.6139C114.377 21.944 114.455 22.2715 114.614 22.5633C114.773 22.8551 115.009 23.1009 115.297 23.2759C115.587 23.4559 115.933 23.5879 116.334 23.6779C116.741 23.7679 117.198 23.8159 117.692 23.8159H117.698ZM117.698 22.1359C117.346 22.1359 117.093 22.0819 116.951 21.9679C116.881 21.9173 116.824 21.8512 116.786 21.775C116.747 21.6989 116.728 21.6148 116.729 21.5299C116.729 21.3499 116.815 21.2179 116.982 21.1279C117.186 21.0294 117.409 20.9742 117.636 20.9659L118.667 20.8819V21.9619C118.568 22.0219 118.42 22.0579 118.235 22.0939C118.038 22.1239 117.859 22.1419 117.698 22.1419V22.1359Z" fill="white"/>
<defs>
<linearGradient id="paint0_linear_0_1764" x1="36.283" y1="16.8185" x2="36.283" y2="8.10419" gradientUnits="userSpaceOnUse">
<stop stop-color="#2D2E83"/>
<stop offset="0.0304" stop-color="#203C8C"/>
<stop offset="0.0874" stop-color="#00549F"/>
<stop offset="0.1501" stop-color="#0068B0"/>
<stop offset="0.2172" stop-color="#0078BF"/>
<stop offset="0.2898" stop-color="#0085CB"/>
<stop offset="0.3698" stop-color="#008FD5"/>
<stop offset="0.4603" stop-color="#0096DB"/>
<stop offset="0.5673" stop-color="#009BE0"/>
<stop offset="0.7068" stop-color="#009EE3"/>
<stop offset="1" stop-color="#009FE3"/>
</linearGradient>
<linearGradient id="paint1_linear_0_1764" x1="36.283" y1="16.8185" x2="36.283" y2="8.10419" gradientUnits="userSpaceOnUse">
<stop stop-color="#211F5D"/>
<stop offset="0.0698" stop-color="#192A67" stop-opacity="0.93"/>
<stop offset="0.2648" stop-color="#004C89" stop-opacity="0.74"/>
<stop offset="0.4505" stop-color="#0069A8" stop-opacity="0.55"/>
<stop offset="0.622" stop-color="#0080C1" stop-opacity="0.38"/>
<stop offset="0.776" stop-color="#0091D4" stop-opacity="0.22"/>
<stop offset="0.9072" stop-color="#009BE0" stop-opacity="0.09"/>
<stop offset="1" stop-color="#009FE3" stop-opacity="0"/>
</linearGradient>
<linearGradient id="paint2_linear_0_1764" x1="36.283" y1="22.4533" x2="36.283" y2="31.7349" gradientUnits="userSpaceOnUse">
<stop stop-color="#935B00"/>
<stop offset="0.0557" stop-color="#A36600"/>
<stop offset="0.1685" stop-color="#BD7900"/>
<stop offset="0.2901" stop-color="#D28900"/>
<stop offset="0.4214" stop-color="#E29500"/>
<stop offset="0.5671" stop-color="#EE9E00"/>
<stop offset="0.7386" stop-color="#F5A300"/>
<stop offset="1" stop-color="#F7A400"/>
</linearGradient>
<linearGradient id="paint3_linear_0_1764" x1="36.283" y1="22.4533" x2="36.283" y2="31.7349" gradientUnits="userSpaceOnUse">
<stop stop-color="#3C0E00"/>
<stop offset="0.1855" stop-color="#6E2F00" stop-opacity="0.81"/>
<stop offset="0.3977" stop-color="#9F5400" stop-opacity="0.6"/>
<stop offset="0.5929" stop-color="#C47400" stop-opacity="0.41"/>
<stop offset="0.7646" stop-color="#E08E00" stop-opacity="0.24"/>
<stop offset="0.9061" stop-color="#F19E00" stop-opacity="0.09"/>
<stop offset="1" stop-color="#F7A400" stop-opacity="0"/>
</linearGradient>
<linearGradient id="paint4_linear_0_1764" x1="26.5264" y1="20.0139" x2="37.7876" y2="20.0139" gradientUnits="userSpaceOnUse">
<stop stop-color="#5A0F09"/>
<stop offset="0.0334" stop-color="#68110C"/>
<stop offset="0.1105" stop-color="#831411"/>
<stop offset="0.1954" stop-color="#9C1413"/>
<stop offset="0.2887" stop-color="#B11213"/>
<stop offset="0.3938" stop-color="#C21013"/>
<stop offset="0.5172" stop-color="#CE0C12"/>
<stop offset="0.6766" stop-color="#D50A12"/>
<stop offset="1" stop-color="#D70911"/>
</linearGradient>
</defs>
</svg>
