<svg width="45" height="45" viewBox="0 0 45 45" fill="none" xmlns="http://www.w3.org/2000/svg">
<path d="M44.3312 27.9304C41.3288 39.9766 29.128 47.3324 17.0597 44.3282C5.01344 41.3167 -2.33058 29.1158 0.671783 17.0696C3.67415 5.02342 15.8676 -2.33243 27.9065 0.671763C39.9822 3.63914 47.3262 15.8768 44.3312 27.9304Z" fill="#10202D"/>
<path d="M22.7622 27.959C22.6748 27.9888 22.625 27.9127 22.5655 27.8777C19.6517 26.158 16.741 24.437 13.8335 22.7149C13.8054 22.7007 13.7761 22.6887 13.7461 22.6791V22.6406L13.7977 22.6109C13.8709 22.5917 13.943 22.5683 14.0136 22.541L20.8802 19.4167C21.4921 19.1378 22.104 18.8634 22.7159 18.5871H22.7596C22.7596 18.6745 22.7596 18.7523 22.7596 18.8354C22.7619 21.8769 22.7628 24.9181 22.7622 27.959Z" fill="#C1C9E5"/>
<path d="M22.7666 18.5892H22.7229C22.7229 18.5018 22.7316 18.4144 22.7316 18.3226C22.7316 14.9064 22.7316 11.4899 22.7316 8.07306C22.7215 7.9853 22.7275 7.89646 22.7491 7.81081H22.7674C23.1267 8.34143 23.4397 8.90089 23.7701 9.44899C26.3879 13.7913 29.0043 18.1329 31.6192 22.474C31.6446 22.5169 31.6647 22.5614 31.6874 22.6086C31.6134 22.5928 31.5406 22.5715 31.4697 22.5448C30.9898 22.328 30.5082 22.1077 30.0326 21.8866C29.2878 21.5457 28.5427 21.2053 27.7974 20.8656L24.2063 19.2387C23.7281 19.0185 23.2474 18.8043 22.7666 18.5892Z" fill="#C1C9E5"/>
<path d="M22.752 7.80629C22.7304 7.89194 22.7244 7.98079 22.7345 8.06854C22.7345 11.4848 22.7345 14.9013 22.7345 18.3181C22.7345 18.4055 22.7292 18.4929 22.7257 18.5847C22.1138 18.861 21.5019 19.1354 20.89 19.4143L14.0234 22.5386C13.9528 22.5659 13.8807 22.5893 13.8075 22.6085C14.0059 22.1959 14.2638 21.8218 14.499 21.4266C17.2235 16.8979 19.95 12.37 22.6785 7.84301C22.6966 7.81793 22.7161 7.79399 22.7371 7.77133L22.752 7.80629Z" fill="#C1C9E5"/>
<path d="M22.7666 18.5892C23.2474 18.8043 23.7283 19.0185 24.2082 19.2353L27.7993 20.8621C28.5452 21.2013 29.2903 21.5417 30.0345 21.8832C30.5136 22.1026 30.9961 22.3246 31.4716 22.5414C31.5425 22.5681 31.6153 22.5894 31.6893 22.6052C31.7767 22.7145 31.6473 22.7189 31.608 22.7425C30.8623 23.1883 30.1132 23.628 29.3658 24.0703C27.2206 25.3396 25.076 26.6086 22.9319 27.8773C22.8777 27.9088 22.819 27.9319 22.7622 27.959C22.7622 24.9187 22.7623 21.8785 22.7623 18.8376C22.7632 18.7545 22.7657 18.6723 22.7666 18.5892Z" fill="#C1C9E5"/>
<path d="M22.7315 29.6861L28.348 26.3756C29.4203 25.7427 30.492 25.1093 31.5632 24.4752L31.6602 24.4219C31.6698 24.5093 31.6095 24.5556 31.5728 24.6063C29.1251 28.0569 26.6775 31.5064 24.2298 34.9547C23.7665 35.6085 23.3041 36.2659 22.8364 36.9145C22.8119 36.9486 22.7743 37.1086 22.6992 36.939C22.7586 36.8883 22.7324 36.8201 22.7324 36.7642C22.733 34.4039 22.7327 32.0446 22.7315 29.6861Z" fill="#C1C9E5"/>
<path d="M22.7315 29.6861C22.7315 32.0446 22.731 34.4029 22.731 36.7603C22.731 36.8206 22.7572 36.8888 22.6978 36.9351C22.5728 36.8599 22.5186 36.7253 22.4356 36.6143C19.5974 32.6164 16.7608 28.618 13.9256 24.619C13.8897 24.5683 13.8565 24.5141 13.8198 24.4582C13.8932 24.4153 13.9326 24.4739 13.9754 24.4992C16.8456 26.194 19.7152 27.8901 22.5842 29.5878C22.6375 29.621 22.6834 29.6546 22.7315 29.6861Z" fill="#C1C9E5"/>
<path d="M22.752 7.80629L22.7316 7.7739C22.7701 7.74942 22.7648 7.78526 22.771 7.80362L22.752 7.80629Z" fill="#C1C9E5"/>
</svg>
