<svg width="22" height="22" viewBox="0 0 22 22" fill="none" xmlns="http://www.w3.org/2000/svg">
<path d="M11 14V17" stroke="#C1C9E5" stroke-width="1.5" stroke-linecap="round"/>
<path d="M20.6359 11.9579L20.3572 13.8952C19.8697 17.2827 19.626 18.9764 18.451 19.9882C17.2759 21 15.5526 21 12.1061 21H9.8939C6.44737 21 4.72409 21 3.54903 19.9882C2.37396 18.9764 2.13025 17.2827 1.64284 13.8952L1.36407 11.9579C0.984627 9.3208 0.794907 8.00229 1.33537 6.87495C1.87583 5.7476 3.02619 5.06234 5.32691 3.69181L6.71175 2.86687C8.80104 1.62229 9.8457 1 11 1C12.1543 1 13.199 1.62229 15.2882 2.86687L16.6731 3.69181C18.9738 5.06234 20.1242 5.7476 20.6646 6.87495" stroke="#C1C9E5" stroke-width="1.5" stroke-linecap="round"/>
</svg>
