<svg width="20" height="20" viewBox="0 0 20 20" fill="none" xmlns="http://www.w3.org/2000/svg">
<g clip-path="url(#clip0_0_1917)">
<path d="M9.99716 19.09C15.0179 19.09 19.0881 15.0199 19.0881 9.99911C19.0881 4.97834 15.0179 0.908203 9.99716 0.908203C4.97639 0.908203 0.90625 4.97834 0.90625 9.99911C0.90625 15.0199 4.97639 19.09 9.99716 19.09Z" stroke="#C1C9E5" stroke-width="1.1" stroke-linecap="square"/>
<path d="M9.99574 19.09C12.42 16.8862 13.6321 13.8559 13.6321 9.99911C13.6321 6.14236 12.42 3.11206 9.99574 0.908203C7.5715 3.11206 6.35938 6.14236 6.35938 9.99911C6.35938 13.8559 7.5715 16.8862 9.99574 19.09Z" stroke="#C1C9E5" stroke-width="1.1" stroke-linecap="round"/>
<path d="M1.35938 7.27148H18.6321M1.35938 12.726H18.6321" stroke="#C1C9E5" stroke-width="1.1" stroke-linecap="round"/>
</g>
<defs>
<clipPath id="clip0_0_1917">
<rect width="20" height="20" fill="white"/>
</clipPath>
</defs>
</svg>
