<svg width="45" height="45" viewBox="0 0 45 45" fill="none" xmlns="http://www.w3.org/2000/svg">
<path d="M44.3312 27.9304C41.3288 39.9766 29.128 47.3324 17.0597 44.3282C5.01344 41.3167 -2.33058 29.1158 0.671783 17.0696C3.67415 5.02342 15.8676 -2.33243 27.9065 0.671763C39.9822 3.63914 47.3262 15.8768 44.3312 27.9304Z" fill="#10202D"/>
<path d="M20.2718 31.6161L22.5113 24.0643L26.0008 23.0747L26.7299 20.5748L23.2926 21.6164L26.9383 9.22105V9.02314C26.9356 8.94379 26.9173 8.86574 26.8844 8.79347C26.8515 8.7212 26.8047 8.65611 26.7467 8.60194C26.6886 8.54776 26.6205 8.50556 26.5461 8.47774C26.4718 8.44993 26.3926 8.43704 26.3133 8.43983H21.678C21.5026 8.43442 21.3303 8.48788 21.1887 8.5917C21.0472 8.69552 20.9444 8.84373 20.8968 9.01272L16.5741 23.6997L13.1367 24.7413L12.3555 27.1371L15.7928 26.0954L12.72 36.5638H31.0527C31.2286 36.5711 31.4017 36.5183 31.5437 36.4142C31.6857 36.3101 31.788 36.1608 31.8339 35.9909L32.8756 32.3973V32.1994C32.8729 32.12 32.8546 32.042 32.8217 31.9697C32.7888 31.8974 32.742 31.8323 32.684 31.7782C32.6259 31.724 32.5578 31.6818 32.4834 31.654C32.409 31.6262 32.3299 31.6133 32.2506 31.6161H20.2718Z" fill="#C1C9E5"/>
</svg>
