<svg width="22" height="16" viewBox="0 0 22 16" fill="none" xmlns="http://www.w3.org/2000/svg">
<path d="M0.144767 6.33941C0.146967 6.32212 0.149901 6.30484 0.152101 6.28683C0.154301 6.27314 0.155768 6.25945 0.157968 6.24576C0.153568 6.27746 0.149167 6.30844 0.144767 6.33941ZM0.201968 5.92519C0.202701 5.91943 0.204168 5.91367 0.204901 5.9079C0.205635 5.90286 0.206368 5.89782 0.207101 5.89277C0.205635 5.90358 0.203435 5.91439 0.201968 5.92519ZM21.6697 11.4988C21.6675 11.5168 21.6631 11.5341 21.6609 11.5514C21.6573 11.5802 21.6536 11.6091 21.6499 11.6379C21.6573 11.5918 21.6631 11.5449 21.6697 11.4988ZM21.999 6.57786C22.0049 7.12536 21.9843 7.66925 21.9433 8.21531C21.9007 8.76856 21.8589 9.32326 21.8362 9.87796C21.812 10.4391 21.7379 10.996 21.6609 11.5514C21.6118 11.9008 21.5473 12.2466 21.4879 12.5938C21.4307 12.9295 21.3889 13.2667 21.3331 13.6024C21.306 13.7666 21.2642 13.9265 21.2261 14.0886C21.1887 14.2392 21.1571 14.3905 21.1117 14.5382C21.0677 14.6858 21.0046 14.8292 20.9459 14.9704C20.8059 15.3061 20.6115 15.5993 20.3167 15.8284C20.2427 15.9011 20.1554 15.9508 20.0535 15.9789C19.9479 16.007 19.8415 16.007 19.7359 15.9789C19.6179 15.948 19.5196 15.8723 19.4294 15.7758C18.7775 15.5006 18.1673 15.1591 17.5623 14.7968C17.2066 14.5835 16.8488 14.3732 16.499 14.1506C16.3259 14.0404 16.1602 13.9186 15.9871 13.8084C15.8287 13.7075 15.6916 13.5836 15.5427 13.4698C15.374 13.3409 15.2164 13.1982 15.0543 13.0614C14.8658 12.9014 14.6686 12.7494 14.4794 12.5895C14.288 12.4267 14.1031 12.2567 13.9249 12.0795C13.7797 11.9354 13.6375 11.7805 13.4769 11.6516C13.4681 11.653 13.46 11.6566 13.4512 11.658C13.207 11.6933 12.9621 11.7366 12.7149 11.7495C12.2001 11.7747 11.6839 11.7906 11.1683 11.7848C10.8809 11.7805 10.5934 11.7747 10.3059 11.7683C10.0331 11.7596 9.76105 11.7272 9.49118 11.6969C9.30784 11.676 9.12964 11.6537 8.95364 11.6026C8.84951 11.573 8.74317 11.5493 8.6361 11.5269C8.5349 11.5046 8.43224 11.4815 8.33103 11.4563C8.30684 11.5089 8.2775 11.5608 8.23643 11.6062C8.17337 11.676 8.1103 11.7481 8.04943 11.818C7.86463 12.0247 7.68203 12.2307 7.48183 12.4217C7.28456 12.6111 7.07116 12.7797 6.85409 12.9468C6.39062 13.2991 5.92495 13.6506 5.44608 13.9835C5.00974 14.2853 4.5228 14.5187 4.05053 14.7615C3.53573 15.0266 3.01799 15.2895 2.50245 15.551C2.43205 15.587 2.35725 15.6072 2.28172 15.6159C2.17832 15.6533 2.06685 15.6699 1.95685 15.6339C1.80798 15.5849 1.64665 15.5366 1.51391 15.4523C1.36504 15.3594 1.26238 15.2485 1.16484 15.1037C1.02477 14.8919 0.931641 14.6484 0.83484 14.4157C0.730706 14.1672 0.639038 13.9114 0.573038 13.6499C0.507037 13.3848 0.45277 13.1175 0.398503 12.8496C0.347169 12.5866 0.284102 12.3287 0.235702 12.0658C0.184368 11.7805 0.155768 11.4916 0.128634 11.2035C0.0787669 10.6812 0.0575001 10.1575 0.0310999 9.63303C0.00396631 9.09346 -0.0077671 8.55173 0.00543301 8.01216C0.0193665 7.43296 0.0758336 6.86098 0.152834 6.28755C0.170434 6.16076 0.188034 6.03469 0.204901 5.9079C0.276035 5.36473 0.349369 4.823 0.44837 4.28415C0.534171 3.82094 0.658838 3.36133 0.80184 2.91037C0.943374 2.46085 1.07758 2.00988 1.25651 1.57333C1.35258 1.33848 1.43398 1.09859 1.55425 0.873831C1.60925 0.770815 1.66205 0.666359 1.71338 0.561182C1.76618 0.453124 1.83218 0.37172 1.90772 0.275909C1.97885 0.187301 2.10645 0.144798 2.22598 0.126068C2.28612 0.0785224 2.35505 0.041062 2.43059 0.0208911C2.48045 0.00720374 2.53545 0 2.59192 0C2.69165 0 2.79432 0.0237727 2.87059 0.0770814C2.97692 0.149841 3.08106 0.226202 3.18886 0.29752C3.43893 0.466091 3.69486 0.626017 3.942 0.797469C4.17373 0.958836 4.40107 1.12597 4.62987 1.29166C4.85281 1.45158 5.07281 1.61583 5.29648 1.77648C5.51941 1.9364 5.74968 2.08696 5.97115 2.24833C6.22122 2.43059 6.47862 2.61501 6.70449 2.82536C6.92449 3.02923 7.13496 3.23959 7.34103 3.45714C7.53243 3.65813 7.7231 3.86128 7.9189 4.05795C8.01643 4.15592 8.11323 4.25461 8.2269 4.35907C8.53564 4.22436 8.85024 4.10549 9.18611 4.04858C9.46331 4.00104 9.74345 3.9643 10.025 3.93764C10.4607 3.89658 10.8992 3.87209 11.3377 3.87209C11.4199 3.87209 11.5027 3.87281 11.5849 3.87497C12.0894 3.88649 12.5939 3.91963 13.0875 4.02409C13.3001 4.06803 13.5297 4.12494 13.7387 4.21499C13.812 4.13647 13.8809 4.05434 13.9565 3.97726C14.1127 3.81734 14.2667 3.65741 14.428 3.50253C14.7852 3.16539 15.1738 2.87003 15.5662 2.57395C16.1602 2.12514 16.7652 1.68859 17.4054 1.3075C18.0742 0.908409 18.7936 0.600804 19.524 0.331379C19.568 0.31481 19.6171 0.307606 19.667 0.307606C19.7081 0.307606 19.7491 0.316251 19.7895 0.324895C19.8049 0.314089 19.8151 0.29752 19.8313 0.288155C19.92 0.237008 20.0175 0.213235 20.1151 0.213235C20.3131 0.213235 20.5074 0.312648 20.6115 0.489143C20.7252 0.677885 20.8088 0.878153 20.8946 1.07914C21.0317 1.39539 21.1696 1.71236 21.2979 2.03221C21.4153 2.32829 21.4681 2.63878 21.5267 2.94927C21.5854 3.25543 21.6822 3.55151 21.7482 3.85624C21.8237 4.1977 21.867 4.55141 21.8985 4.89864C21.9499 5.45838 21.9931 6.0174 21.999 6.57786ZM7.48403 10.9427C7.48036 10.9326 7.47156 10.9218 7.46863 10.9124C7.46276 10.8923 7.46789 10.8707 7.46423 10.8498C7.38576 10.754 7.34763 10.6481 7.33589 10.5227C7.33296 10.486 7.33003 10.4514 7.32709 10.4146C7.32489 10.3902 7.32636 10.3649 7.32489 10.3397C7.13276 10.455 6.94136 10.5717 6.74409 10.6783C6.30922 10.9117 5.84208 11.0897 5.38448 11.2726C5.24734 11.3259 5.05741 11.2842 4.93567 11.215C4.80587 11.1394 4.70834 11.0155 4.668 10.8721C4.6262 10.7244 4.6482 10.5645 4.72667 10.4312C4.80954 10.2936 4.92687 10.2245 5.07428 10.1683C5.39108 10.0501 5.71081 9.93919 6.02468 9.81817C6.23955 9.71731 6.45295 9.60782 6.65535 9.48535C6.85702 9.36288 7.04402 9.22025 7.24863 9.10354C7.27063 9.09058 7.29703 9.09418 7.31976 9.08481C7.31903 8.93641 7.32049 8.78801 7.32196 8.63889C7.26843 8.65258 7.21636 8.67131 7.15916 8.67059C6.58862 8.6605 6.01808 8.70013 5.44754 8.70157C5.09188 8.70157 4.79561 8.40909 4.79561 8.0597C4.79561 7.71391 5.09188 7.41495 5.44754 7.41928C5.80908 7.4236 6.16915 7.43224 6.52922 7.4236C6.74116 7.41784 6.94942 7.40127 7.15989 7.38542C7.17163 7.3847 7.18409 7.38398 7.19583 7.38398C7.25303 7.38398 7.30509 7.40487 7.35789 7.42144C7.36669 7.28096 7.37549 7.13977 7.38429 6.99929C7.24129 7.03315 7.08656 7.02018 6.95676 6.93878C6.59375 6.70969 6.22122 6.48998 5.82888 6.31276C5.62575 6.2328 5.41968 6.16436 5.21361 6.09448C4.89314 5.98498 4.6834 5.67738 4.77727 5.34024C4.84841 5.08954 5.10728 4.88279 5.37641 4.88279C5.43288 4.88279 5.49008 4.89216 5.54508 4.91161C6.02835 5.08306 6.49842 5.26964 6.93329 5.53834C7.11223 5.64928 7.29043 5.76094 7.46716 5.87476C7.48916 5.66009 7.5185 5.44685 7.5493 5.23362C7.53169 5.21129 7.50676 5.19616 7.49283 5.17022C7.47303 5.13276 7.45103 5.09819 7.42683 5.06433C7.15769 4.74664 6.85116 4.45344 6.56075 4.15448C6.25862 3.84471 5.93962 3.55584 5.59495 3.28857C5.35588 3.11136 5.11314 2.9399 4.86967 2.76917C4.60714 2.58403 4.3512 2.38881 4.08647 2.20511C3.7946 1.9998 3.50053 1.79737 3.19986 1.60502C3.06419 1.51786 2.92119 1.4451 2.78406 1.36081C2.72979 1.32768 2.67699 1.29166 2.62345 1.25708C2.55379 1.3817 2.49145 1.51065 2.43425 1.63888C2.18932 2.23536 2.00012 2.85274 1.81751 3.47011C1.29758 5.2401 1.07904 7.12248 1.09884 8.96163C1.10031 9.08625 1.10251 9.21088 1.10544 9.33479C1.12744 10.1251 1.17364 10.9218 1.26824 11.7085C1.29831 11.8929 1.33791 12.0766 1.37238 12.2603C1.41784 12.4894 1.45964 12.7185 1.50805 12.9454C1.55205 13.16 1.60265 13.3754 1.66498 13.5858C1.70971 13.732 1.76471 13.8747 1.82411 14.0159C1.90038 14.1888 1.97958 14.3588 2.08298 14.5173C2.09252 14.5201 2.10205 14.523 2.11085 14.5266C2.47019 14.3566 2.83392 14.1945 3.19693 14.0288C3.38539 13.9417 3.57166 13.8473 3.75866 13.7565C3.942 13.6665 4.12607 13.5793 4.305 13.4785C4.668 13.2746 5.00974 13.0469 5.34414 12.7999C5.65875 12.5701 5.97408 12.3417 6.28648 12.1076C6.73089 11.7603 7.11076 11.3584 7.48403 10.9427ZM12.8601 10.6034C13.0486 10.576 13.2312 10.5422 13.4094 10.4773C13.4365 10.4651 13.4637 10.4521 13.4901 10.4399C13.4945 10.4377 13.4996 10.437 13.504 10.4348C13.581 9.63735 13.5942 8.83196 13.5891 8.03377C13.5861 7.59001 13.6008 7.14769 13.5707 6.70537C13.5399 6.26161 13.4901 5.81929 13.4461 5.37554C13.4035 5.3532 13.3588 5.33375 13.3214 5.30134C13.2928 5.28477 13.262 5.27036 13.2312 5.25595C12.9503 5.15366 12.6548 5.10179 12.3607 5.06001C11.9493 5.01894 11.5357 5.0139 11.1229 5.01534C10.7137 5.01534 10.3074 5.03191 9.89965 5.07225C9.55645 5.12412 9.22131 5.19904 8.89644 5.32295C8.81137 5.36113 8.72777 5.40291 8.64417 5.44397C8.6097 5.65577 8.57597 5.86756 8.5459 6.08008C8.4931 6.51519 8.46524 6.95174 8.43444 7.38758C8.40877 7.78091 8.3787 8.17424 8.37284 8.56902C8.36697 8.9465 8.35964 9.3247 8.36843 9.70219C8.37284 9.90462 8.37357 10.1078 8.38457 10.3102C8.71604 10.437 9.06511 10.5443 9.41564 10.5969C10.0236 10.6718 10.6359 10.7021 11.249 10.6942C11.5519 10.6898 11.854 10.6747 12.1569 10.6574C12.3937 10.6445 12.6277 10.6293 12.8601 10.6034ZM20.9276 6.25585C20.9173 5.97778 20.8873 5.70115 20.8601 5.42308C20.8374 5.1659 20.8213 4.90944 20.7905 4.65443C20.7619 4.44479 20.7333 4.23444 20.6805 4.02841C20.6203 3.79356 20.5507 3.56088 20.5103 3.32171C20.47 3.08974 20.4377 2.85418 20.3747 2.62654C20.3211 2.43563 20.2383 2.25121 20.1583 2.06823C20.0813 1.89606 19.9955 1.72749 19.9127 1.55604C19.8885 1.50633 19.8606 1.45879 19.8371 1.40908C19.8335 1.41052 19.8313 1.41268 19.8283 1.4134C19.5541 1.51137 19.2813 1.60791 19.0099 1.71452C18.7423 1.82834 18.479 1.94721 18.223 2.0848C17.9187 2.24905 17.6254 2.43419 17.3394 2.62581C16.8348 2.96224 16.342 3.31595 15.858 3.67974C15.5904 3.88793 15.3359 4.10909 15.0895 4.3425C14.8776 4.54205 14.6693 4.74736 14.4786 4.96852C14.5234 5.04992 14.5534 5.13709 14.5615 5.2365C14.5674 5.31214 14.5732 5.3885 14.5784 5.46414C14.5857 5.56572 14.5916 5.66801 14.5974 5.76959C14.7089 5.69107 14.8189 5.60966 14.9348 5.53906C15.0902 5.44469 15.242 5.33808 15.4034 5.25523C15.616 5.14429 15.8294 5.03335 16.0465 4.92817C16.1455 4.87919 16.246 4.84893 16.3508 4.84893C16.3992 4.84893 16.4484 4.85542 16.4982 4.8691C16.6456 4.90872 16.7725 5.00526 16.8502 5.13421C17.002 5.3885 16.9272 5.7876 16.6383 5.92375C16.4212 6.02605 16.2034 6.13194 15.9878 6.23712C15.8236 6.31564 15.6674 6.41578 15.509 6.5051C15.3689 6.58363 15.2347 6.678 15.1012 6.7666C14.9707 6.85449 14.8409 6.94166 14.7126 7.03387C14.7082 7.03747 14.7038 7.04107 14.6994 7.04467C14.6935 7.04972 14.6869 7.0526 14.681 7.05764C14.684 7.17002 14.6818 7.28312 14.684 7.3955C15.297 7.40631 15.9094 7.4308 16.5224 7.42144C16.848 7.41567 17.1201 7.6923 17.1201 8.00855C17.1201 8.3104 16.8488 8.61656 16.5224 8.59423C15.9123 8.55173 15.2963 8.58342 14.6854 8.59135C14.6818 8.77577 14.6715 8.95947 14.6649 9.14388C14.7236 9.17054 14.7786 9.20656 14.8343 9.2505C15.1108 9.4378 15.4034 9.58116 15.7084 9.71515C15.9548 9.81457 16.2049 9.90894 16.4557 10.0004C16.5914 10.0494 16.7028 10.1171 16.7776 10.2432C16.8502 10.3657 16.8708 10.5141 16.8319 10.6502C16.7945 10.7835 16.7043 10.8973 16.5848 10.9679C16.4704 11.0342 16.2988 11.0688 16.1704 11.0212C15.7986 10.8822 15.4327 10.728 15.0712 10.5659C14.9135 10.4961 14.7573 10.4211 14.6055 10.3397C14.5974 10.4528 14.5945 10.5659 14.5791 10.6783C14.5593 10.8238 14.5336 10.9679 14.5094 11.1127C14.7859 11.4109 15.0932 11.6811 15.4085 11.9339C15.7825 12.2336 16.1404 12.5513 16.518 12.846C17.0028 13.1925 17.519 13.4957 18.0331 13.7976C18.5479 14.0994 19.0752 14.3717 19.6215 14.6131C19.678 14.6361 19.7345 14.6592 19.7909 14.6829C19.8342 14.6138 19.8767 14.5439 19.9127 14.4704C20.0124 14.219 20.0857 13.9611 20.1598 13.7003C20.2441 13.3985 20.3087 13.088 20.3629 12.7804C20.4172 12.4699 20.4773 12.1623 20.5404 11.8533C20.5947 11.5874 20.6365 11.3209 20.6746 11.0515C20.7391 10.5263 20.7765 10.0004 20.811 9.47238C20.8469 8.93713 20.8851 8.40333 20.9225 7.8688C20.9577 7.33283 20.9481 6.79398 20.9276 6.25585Z" fill="#C1C9E5"/>
</svg>
