<svg width="68" height="45" viewBox="0 0 68 45" fill="none" xmlns="http://www.w3.org/2000/svg">
<rect width="67.5" height="45" rx="4" fill="#10202D"/>
<path d="M25.252 9.63086C28.4873 9.63086 31.4506 10.7605 33.75 12.6348C30.854 14.9954 29.0117 18.5383 29.0117 22.5C29.0119 26.4613 30.8544 30.0028 33.75 32.3633C31.4506 34.2378 28.4875 35.3682 25.252 35.3682C17.9419 35.3682 12.0159 29.6069 12.0156 22.5C12.0156 15.3928 17.9417 9.63086 25.252 9.63086ZM42.248 9.63086C49.5583 9.63086 55.4844 15.3928 55.4844 22.5C55.4841 29.6069 49.5581 35.3682 42.248 35.3682C39.0125 35.3682 36.0494 34.2378 33.75 32.3633C36.6456 30.0028 38.4881 26.4613 38.4883 22.5C38.4883 18.5383 36.646 14.9954 33.75 12.6348C36.0494 10.7605 39.0127 9.63086 42.248 9.63086Z" fill="#C1C9E5"/>
</svg>
