<svg width="120" height="42" viewBox="0 0 120 42" fill="none" xmlns="http://www.w3.org/2000/svg">
<g clip-path="url(#clip0_0_1724)">
<path d="M62.7808 0H61.5586V42H62.7808V33.9188H78.2194V29.0259H66.3407V23.3912H76.4953V18.4614H66.3407V13.011H78.2194V8.08118H62.7808V0Z" fill="white"/>
<path d="M14.7275 23.9265L10.3404 16.8866L4.71709 8.16957L4.66132 8.08203H0V33.9197H5.17253V18.0384L9.02986 24.226L15.2341 33.9197H19.9326V8.08203H14.7275V23.9265Z" fill="white"/>
<path d="M22.8418 33.9197H39.9256V29.0267H28.0469V23.392H38.2014V18.4622H28.0469V13.0118H39.9256V8.08203H22.8418V33.9197Z" fill="white"/>
<path d="M42.0215 13.0487H47.9934V33.9197H53.1984V13.0487H59.1331V8.08203H42.0215V13.0487Z" fill="white"/>
<path d="M95.5498 23.9675L91.1627 16.9322L85.5394 8.21519L85.4836 8.12305H80.8223V33.9607H85.9901V18.0794L89.8475 24.267L96.0564 33.9607H100.755V8.12305H95.5498V23.9675Z" fill="white"/>
<path d="M102.883 8.12305V13.0897H108.855V33.9607H114.06V13.0897H119.994V8.12305H102.883Z" fill="white"/>
</g>
<defs>
<clipPath id="clip0_0_1724">
<rect width="120" height="42" fill="white"/>
</clipPath>
</defs>
</svg>
