<svg width="68" height="45" viewBox="0 0 68 45" fill="none" xmlns="http://www.w3.org/2000/svg">
<rect width="67.5" height="45" rx="4" fill="#10202D"/>
<path d="M36.7294 36.5622C44.246 36.5975 51.1069 30.5476 51.1069 23.1879C51.1069 15.1404 44.246 9.57708 36.7294 9.58008H30.2602C22.654 9.57708 16.3926 15.1419 16.3926 23.1879C16.3926 30.5491 22.654 36.5975 30.2602 36.5622H36.7294Z" fill="#C1C9E5"/>
<path d="M30.2905 10.6953C23.3393 10.6976 17.7074 16.2248 17.7051 23.0468C17.7074 29.8679 23.3393 35.3952 30.2905 35.3974C37.2424 35.3952 42.8766 29.8679 42.8774 23.0468C42.8766 16.2248 37.2432 10.6976 30.2905 10.6953ZM22.3135 23.0468C22.312 21.4695 22.8 19.9284 23.7137 18.6251C24.6274 17.3217 25.9242 16.3166 27.4347 15.7412V30.3516C25.9241 29.7766 24.6271 28.7717 23.7134 27.4684C22.7996 26.1651 22.3117 24.624 22.3135 23.0468ZM33.1454 30.3546V15.7404C34.6571 16.315 35.9551 17.32 36.8694 18.6238C37.7838 19.9276 38.2718 21.4695 38.2698 23.0475C38.2715 24.6255 37.7833 26.1672 36.869 27.4709C35.9547 28.7747 34.6569 29.7797 33.1454 30.3546Z" fill="#C1C9E5"/>
<path d="M30.29 10.6953C37.2428 10.6976 42.8762 16.2249 42.877 23.0469C42.8761 29.868 37.242 35.3952 30.29 35.3975C23.3391 35.395 17.7075 29.8679 17.7051 23.0469C17.7074 16.2251 23.339 10.6978 30.29 10.6953ZM33.1455 30.3545C34.6569 29.7796 35.9549 28.7744 36.8691 27.4707C37.7833 26.1671 38.2712 24.6256 38.2695 23.0479C38.2716 21.4698 37.7835 19.9278 36.8691 18.624C35.9548 17.3202 34.6572 16.3148 33.1455 15.7402V30.3545ZM27.4346 15.7412C25.9242 16.3166 24.6275 17.3217 23.7139 18.625C22.8002 19.9284 22.312 21.4696 22.3135 23.0469C22.3118 24.6241 22.7992 26.1655 23.7129 27.4688C24.6266 28.772 25.924 29.7765 27.4346 30.3516V15.7412Z" fill="#10202D"/>
</svg>
