<svg width="146" height="47" viewBox="0 0 146 47" fill="none" xmlns="http://www.w3.org/2000/svg">
<path d="M105.507 16.2373C101.033 16.5102 103.042 22.2293 107.987 21.9274C112.825 21.6322 110.273 15.9466 105.507 16.2373Z" fill="#FF9C2C"/>
<path d="M103.619 12.7053C100.769 12.7053 97.982 13.535 95.612 15.0895C93.242 16.644 91.3948 18.8536 90.304 21.4386C89.2133 24.0237 88.9279 26.8683 89.4839 29.6126C90.04 32.3569 91.4126 34.8777 93.4281 36.8562C95.4436 38.8347 98.0116 40.1821 100.808 40.728C103.603 41.2739 106.501 40.9937 109.134 39.9229C111.768 38.8522 114.019 37.0389 115.602 34.7124C117.186 32.3859 118.031 29.6506 118.031 26.8526C118.031 23.1005 116.513 19.5021 113.81 16.8489C111.107 14.1958 107.441 12.7053 103.619 12.7053ZM103.619 39.5172C101.068 39.5176 98.5738 38.7754 96.4524 37.3844C94.3311 35.9935 92.6776 34.0162 91.701 31.7027C90.7244 29.3892 90.4687 26.8434 90.9661 24.3872C91.4635 21.931 92.6918 19.6748 94.4955 17.9038C96.2992 16.1329 98.5974 14.9268 101.1 14.4381C103.602 13.9494 106.195 14.2 108.552 15.1582C110.909 16.1164 112.924 17.7393 114.34 19.8215C115.757 21.9036 116.515 24.3516 116.515 26.8559C116.515 30.2135 115.156 33.4336 112.738 35.808C110.32 38.1824 107.04 39.5166 103.619 39.5172ZM103.185 2.82888C99.7628 5.3676 100.358 9.26088 100.358 9.26088C100.358 9.26088 98.207 3.78132 95.4143 0.431641C95.0375 4.74378 96.414 10.4573 96.414 10.4573C96.414 10.4573 94.6653 6.91488 90.3804 6.7166C93.9345 8.72172 95.3133 12.3343 95.6288 13.3035C97.7468 12.0201 100.169 11.3006 102.657 11.2159C102.377 10.3136 101.38 6.51163 103.185 2.82888Z" fill="#FF9C2C"/>
<path d="M29.2551 28.2391V31.2H28V23.5716H30.6418C31.5375 23.5716 32.2108 23.7807 32.6617 24.1988C33.1126 24.6169 33.3395 25.1895 33.3426 25.9165C33.3426 26.6376 33.1114 27.205 32.6492 27.6186C32.187 28.0323 31.5194 28.2391 30.6463 28.2391H29.2551ZM32.0614 25.9165C32.0614 25.4843 31.9385 25.1546 31.6926 24.9273C31.4467 24.7001 31.0526 24.5868 30.5102 24.5875H29.2551V27.2343H30.5102C31.5436 27.2343 32.0606 26.795 32.0614 25.9165ZM38.5228 31.2L36.5858 28.1533H35.6938V31.2H34.4388V23.5716H37.1804C38.0678 23.5716 38.7411 23.784 39.2003 24.2088C39.6595 24.6336 39.8887 25.1958 39.888 25.8953C39.888 26.4894 39.7174 26.9792 39.3762 27.3646C39.035 27.7501 38.5433 27.9948 37.901 28.0987L39.9436 31.2H38.5228ZM35.6938 27.2778H37.0783C38.092 27.2778 38.5985 26.8385 38.5977 25.9599C38.5977 25.5426 38.4748 25.2166 38.2289 24.9819C37.9827 24.748 37.6003 24.631 37.0783 24.631H35.6938V27.2778ZM45.6561 29.5469H42.3754L41.7808 31.2H40.4384L43.3003 23.6908H44.7426L47.5932 31.2H46.2496L45.6561 29.5469ZM45.3032 28.5967L44.0152 25.032L42.7272 28.5967H45.3032ZM53.9332 24.1765C54.5492 24.6231 54.9826 25.271 55.1554 26.0034H53.8345C53.6699 25.5976 53.3787 25.2533 53.0027 25.0198C52.5928 24.7679 52.1164 24.64 51.633 24.6522C51.1751 24.6448 50.7239 24.7604 50.328 24.9863C49.9407 25.2116 49.6275 25.5415 49.4258 25.9366C49.2015 26.3883 49.0921 26.8868 49.107 27.3892C49.0923 27.9088 49.2055 28.4244 49.4372 28.8919C49.6426 29.2946 49.9664 29.6275 50.3666 29.8477C50.7935 30.0754 51.2732 30.1905 51.7589 30.1818C52.3687 30.1923 52.9606 29.9794 53.4191 29.5848C53.8806 29.1926 54.1594 28.6542 54.2555 27.9695H51.4015V27.0616H55.3085V28.2391C55.2261 28.7879 55.0173 29.3109 54.698 29.7686C54.3741 30.2305 53.9396 30.6072 53.4328 30.8658C52.8765 31.1462 52.2582 31.287 51.633 31.2758C50.9316 31.2899 50.2394 31.1182 49.629 30.7789C49.0565 30.4551 48.5906 29.9768 48.2865 29.401C47.9751 28.7732 47.8133 28.0841 47.8133 27.3858C47.8133 26.6876 47.9751 25.9984 48.2865 25.3707C48.5893 24.7972 49.0532 24.3209 49.6233 23.9983C50.2328 23.6624 50.9228 23.4928 51.6216 23.507C52.5469 23.507 53.3174 23.7302 53.9332 24.1765ZM64.1701 23.6908V31.2H62.9036V25.5712L60.692 31.2H59.5912L57.367 25.5712V31.2H56.1131V23.6908H57.6314L60.1631 29.6872L62.6506 23.6908H64.1701ZM70.3115 29.5469H67.0365L66.4419 31.2H65.0949L67.9568 23.6908H69.398L72.2497 31.2H70.9061L70.3115 29.5469ZM69.9597 28.5967L68.6717 25.032L67.3838 28.5967H69.9597ZM77.6206 23.5716V24.5653H75.4521V31.2H74.1857V24.5653H72.0296V23.5716H77.6206ZM79.5464 23.5716V31.2H78.2924V23.5716H79.5464ZM86.6467 24.2088C87.2834 24.693 87.7336 25.3753 87.9233 26.1437H86.5911C86.421 25.6986 86.1155 25.3155 85.7162 25.0465C85.2805 24.7662 84.7673 24.6246 84.2466 24.641C83.8099 24.6342 83.3803 24.7501 83.0086 24.9752C82.6369 25.2087 82.3393 25.5399 82.1496 25.931C81.9431 26.3869 81.8364 26.8802 81.8364 27.3791C81.8364 27.878 81.9431 28.3714 82.1496 28.8273C82.339 29.2189 82.6366 29.5505 83.0086 29.7842C83.3803 30.0093 83.8099 30.1253 84.2466 30.1184C84.7672 30.1351 85.2803 29.9939 85.7162 29.714C86.1134 29.4475 86.4185 29.0687 86.5911 28.6279H87.9233C87.7347 29.3949 87.2842 30.0754 86.6467 30.5561C86.0158 31.0285 85.2233 31.2646 84.2693 31.2646C83.5863 31.2773 82.9128 31.1071 82.3209 30.7722C81.7589 30.448 81.3042 29.9715 81.0114 29.3998C80.7065 28.7702 80.5483 28.0818 80.5483 27.3847C80.5483 26.6876 80.7065 25.9992 81.0114 25.3695C81.3053 24.7972 81.7596 24.3191 82.3209 23.9916C82.9117 23.6538 83.5857 23.4819 84.2693 23.4948C85.2225 23.4955 86.015 23.7335 86.6467 24.2088ZM93.8435 28.2391V31.2H92.5896V23.5716H95.2313C96.1255 23.5716 96.7988 23.7807 97.2512 24.1988C97.7036 24.6169 97.9306 25.1895 97.9321 25.9165C97.9321 26.6376 97.701 27.205 97.2388 27.6186C96.7765 28.0323 96.1089 28.2391 95.2359 28.2391H93.8435ZM96.6543 25.9165C96.6543 25.4843 96.5314 25.1546 96.2855 24.9273C96.0397 24.7001 95.6451 24.5868 95.102 24.5875H93.8435V27.2343H95.0986C96.1357 27.2343 96.6543 26.795 96.6543 25.9165ZM100.085 30.2387H102.771V31.2H98.8297V23.5716H100.085V30.2387ZM108.517 29.5469H105.237L104.642 31.2H103.299L106.162 23.6908H107.603L110.455 31.2H109.111L108.517 29.5469ZM108.165 28.5967L106.877 25.032L105.589 28.5967H108.165ZM115.492 23.5716L112.906 28.4229V31.2H111.643V28.4229L109.045 23.5716H110.499L112.283 27.1051L114.066 23.5716H115.492Z" fill="white"/>
</svg>
