<svg width="21" height="21" viewBox="0 0 21 21" fill="none" xmlns="http://www.w3.org/2000/svg">
<path fill-rule="evenodd" clip-rule="evenodd" d="M10.095 0.148438C7.94773 0.148428 6.26489 0.148419 4.95189 0.324949C3.60794 0.505638 2.54746 0.882698 1.71508 1.71508C0.882698 2.54746 0.505638 3.60794 0.324949 4.95189C0.148419 6.26489 0.148428 7.94771 0.148438 10.095V10.2018C0.148428 12.3492 0.148419 14.032 0.324949 15.345C0.505638 16.6889 0.882698 17.7495 1.71508 18.5818C2.54746 19.4142 3.60794 19.7912 4.95189 19.972C6.26489 20.1484 7.94772 20.1484 10.095 20.1484H10.2018C12.3492 20.1484 14.032 20.1484 15.345 19.972C16.6889 19.7912 17.7495 19.4142 18.5818 18.5818C19.4142 17.7495 19.7912 16.6889 19.972 15.345C20.1484 14.032 20.1484 12.3492 20.1484 10.2018V10.095C20.1484 7.94772 20.1484 6.26489 19.972 4.95189C19.7912 3.60794 19.4142 2.54746 18.5818 1.71508C17.7495 0.882698 16.6889 0.505638 15.345 0.324949C14.032 0.148419 12.3492 0.148428 10.2018 0.148438H10.095ZM9.45076 1.54405C7.59615 1.546 6.21603 1.56289 5.13781 1.70785C3.9486 1.86774 3.23165 2.17182 2.70174 2.70174C2.17182 3.23165 1.86774 3.9486 1.70785 5.13781C1.56289 6.21603 1.546 7.59615 1.54405 9.45076H5.41705C5.09057 9.04295 4.84662 8.56193 4.71361 8.02986C4.2129 6.02705 6.02705 4.2129 8.02986 4.71361C8.56193 4.84662 9.04295 5.09057 9.45076 5.41705V1.54405ZM1.54405 10.8461C1.546 12.7007 1.56289 14.0808 1.70785 15.159C1.86774 16.3483 2.17182 17.0652 2.70174 17.5951C3.23165 18.1251 3.9486 18.4292 5.13781 18.589C6.21603 18.734 7.59615 18.7509 9.45076 18.7528V12.1239C8.72555 13.5725 7.22754 14.567 5.49727 14.567C5.11196 14.567 4.7996 14.2547 4.7996 13.8694C4.7996 13.4841 5.11196 13.1717 5.49727 13.1717C6.92685 13.1717 8.12467 12.1795 8.4396 10.8461H8.32062H8.31207H1.54405ZM10.8461 18.7528C12.7007 18.7509 14.0808 18.734 15.159 18.589C16.3483 18.4292 17.0652 18.1251 17.5951 17.5951C18.1251 17.0652 18.4292 16.3483 18.589 15.159C18.734 14.0808 18.7509 12.7007 18.7528 10.8461H11.9848H11.9763H11.8573C12.1723 12.1795 13.37 13.1717 14.7996 13.1717C15.1849 13.1717 15.4973 13.4841 15.4973 13.8694C15.4973 14.2547 15.1849 14.567 14.7996 14.567C13.0694 14.567 11.5713 13.5725 10.8461 12.1239V18.7528ZM18.7528 9.45076H14.8799C15.2063 9.04295 15.4503 8.56193 15.5833 8.02986C16.084 6.02705 14.2698 4.2129 12.267 4.71361C11.7349 4.84662 11.2539 5.09057 10.8461 5.41705V1.54405C12.7007 1.546 14.0808 1.56289 15.159 1.70785C16.3483 1.86774 17.0652 2.17182 17.5951 2.70174C18.1251 3.23165 18.4292 3.9486 18.589 5.13781C18.734 6.21603 18.7509 7.59615 18.7528 9.45076ZM10.8461 9.45076V8.31504C10.8486 7.25159 11.5733 6.32534 12.6055 6.06729C13.5863 5.82207 14.4749 6.71056 14.2296 7.69143C13.9716 8.72323 13.046 9.44769 11.983 9.45076H10.8461ZM9.45076 8.31355C9.4476 7.25071 8.72313 6.32522 7.69143 6.06729C6.71056 5.82207 5.82207 6.71056 6.06729 7.69143C6.32524 8.72323 7.25088 9.44769 8.31383 9.45076H9.45076V8.31355Z" fill="#C1C9E5"/>
</svg>
