<svg width="30" height="35" viewBox="0 0 30 35" fill="none" xmlns="http://www.w3.org/2000/svg">
<path d="M20.8376 9.3476e-06H2.22995C1.63853 9.3476e-06 1.07133 0.245078 0.653137 0.681302C0.23494 1.11753 0 1.70917 0 2.32609L0 32.6739C0 32.9794 0.0576793 33.2819 0.169745 33.5641C0.28181 33.8463 0.446067 34.1027 0.653137 34.3187C0.860207 34.5347 1.10603 34.7061 1.37658 34.8229C1.64713 34.9398 1.93711 35 2.22995 35H20.8376C21.131 35.0009 21.4216 34.9413 21.6929 34.8248C21.9642 34.7083 22.2108 34.5371 22.4185 34.3211C22.6263 34.105 22.7911 33.8483 22.9035 33.5656C23.016 33.283 23.0739 32.9799 23.0739 32.6739V2.32609C23.0739 2.02007 23.016 1.71705 22.9035 1.43441C22.7911 1.15177 22.6263 0.895049 22.4185 0.678967C22.2108 0.462884 21.9642 0.291683 21.6929 0.175175C21.4216 0.0586674 21.131 -0.000858181 20.8376 9.3476e-06ZM19.1576 18.6713C19.1581 19.9304 18.7703 21.1563 18.0514 22.1678L15.066 26.365L18.5271 29.7049C18.5999 29.776 18.6505 29.8682 18.6725 29.9696C18.6945 30.0711 18.6867 30.1771 18.6503 30.2739C18.6139 30.3707 18.5504 30.4538 18.4681 30.5126C18.3858 30.5713 18.2886 30.603 18.1889 30.6034H13.8285C13.579 30.6048 13.3381 30.5083 13.1537 30.333L12.6179 29.8154L12.1881 29.3999L11.5369 28.7653L9.90439 27.2008C9.81501 27.1137 9.75937 26.9955 9.74801 26.8685C9.73665 26.7415 9.77036 26.6145 9.84275 26.5117L14.467 20.0083C14.9756 19.293 15.2499 18.426 15.2493 17.5355V12.0673C15.2493 10.3116 14.6029 9.55985 14.3595 9.36038C14.0782 9.13288 13.4824 8.58886 11.5369 8.58886C9.59147 8.58886 8.99249 9.13288 8.71118 9.36038C8.46464 9.5615 7.81825 10.3116 7.81825 12.0673V17.8602C7.81828 18.3361 7.91264 18.8069 8.0954 19.2429C8.27817 19.6789 8.54539 20.0708 8.88029 20.394L10.4307 21.8909C10.5215 21.978 10.5783 22.0971 10.59 22.2252C10.6016 22.3534 10.5674 22.4815 10.4939 22.5849L8.63848 25.1879C8.59703 25.2463 8.54427 25.2949 8.48364 25.3306C8.423 25.3662 8.35585 25.3882 8.28654 25.3951C8.21723 25.4019 8.14732 25.3935 8.08134 25.3703C8.01536 25.3471 7.9548 25.3097 7.9036 25.2605L5.71474 23.1471C5.1456 22.5975 4.69149 21.9312 4.38091 21.1899C4.07033 20.4487 3.90998 19.6484 3.90992 18.8394V10.3132C3.90992 7.86021 4.62426 6.7524 5.44607 5.99902C6.37693 5.14508 8.04109 4.395 11.5338 4.395C15.0265 4.395 16.6906 5.14508 17.6215 5.99902C18.4433 6.7524 19.1576 7.86021 19.1576 10.3132V18.6713Z" fill="#FF7800"/>
<path d="M38.6115 31.5579C38.8578 31.2343 39.0697 30.8839 39.2436 30.5127C39.751 29.423 39.7478 28.1718 39.7462 27.3442V24.456C39.7462 23.6317 39.7462 22.3772 39.2436 21.2875C38.3444 19.3554 36.7371 18.3861 34.8296 18.3828H34.8059C32.8999 18.3828 31.2926 19.3554 30.3934 21.2875C29.8861 22.3772 29.8892 23.6284 29.8908 24.456V27.3442C29.8908 28.1685 29.8908 29.423 30.3934 30.5127C31.2942 32.4481 32.9062 33.4174 34.8185 33.4174C35.5596 33.4252 36.2932 33.2613 36.9663 32.9377L38.4803 35H41.1464L38.6115 31.5579ZM37.856 27.4283C37.856 28.0993 37.8639 29.0158 37.54 29.7066C37.2002 30.4352 36.3894 31.5381 34.8074 31.5381C33.2255 31.5381 32.4179 30.4352 32.0813 29.7066C31.7446 28.9779 31.7652 27.9377 31.7652 27.2668V24.5335C31.7652 23.8625 31.7399 22.8223 32.0813 22.0937C32.4226 21.365 33.2318 20.2621 34.8138 20.2621C36.3958 20.2621 37.2065 21.365 37.5463 22.0937C37.8861 22.8223 37.8624 23.8625 37.8624 24.5335V27.4283H37.856Z" fill="#FF7800"/>
</svg>
