<svg width="20" height="20" viewBox="0 0 20 20" fill="none" xmlns="http://www.w3.org/2000/svg">
<path d="M9.59431 19.2297C9.59431 19.0257 9.67261 18.8301 9.81199 18.6858C9.95136 18.5416 10.1404 18.4605 10.3375 18.4605C12.2068 18.4605 14.0197 17.7975 15.474 16.582C16.9283 15.3664 17.9362 13.6717 18.3297 11.7803C18.7232 9.88886 18.4786 7.915 17.6366 6.18762C16.7946 4.46024 15.4061 3.08369 13.7025 2.28737C11.9988 1.49105 10.083 1.32307 8.27417 1.81141C6.46539 2.29976 4.87292 3.41493 3.76217 4.97109C2.65141 6.52725 2.08946 8.4304 2.16996 10.3634C2.25046 12.2963 2.96856 14.1424 4.20457 15.5938V12.8892C4.20457 12.6852 4.28287 12.4896 4.42225 12.3453C4.56163 12.201 4.75067 12.12 4.94778 12.12C5.14489 12.12 5.33392 12.201 5.4733 12.3453C5.61268 12.4896 5.69098 12.6852 5.69098 12.8892V17.241C5.69098 17.3421 5.67173 17.4422 5.63432 17.5356C5.5969 17.629 5.54207 17.7139 5.47295 17.7853C5.40383 17.8568 5.32179 17.9134 5.2315 17.952C5.14122 17.9906 5.04447 18.0104 4.94679 18.0103H0.743207C0.546096 18.0103 0.357059 17.9292 0.21768 17.785C0.0783019 17.6407 0 17.445 0 17.241C0 17.037 0.0783019 16.8414 0.21768 16.6971C0.357059 16.5528 0.546096 16.4718 0.743207 16.4718H2.97283C1.54807 14.7348 0.739188 12.5462 0.68009 10.2685C0.620992 7.9907 1.31522 5.76037 2.64785 3.94669C3.98048 2.13301 5.87159 0.844754 8.00808 0.295206C10.1446 -0.254341 12.3983 -0.0322265 14.3962 0.924778C16.3941 1.88178 18.0163 3.51628 18.9943 5.55768C19.9723 7.59908 20.2474 9.92494 19.774 12.1502C19.3006 14.3755 18.1072 16.3667 16.3913 17.7942C14.6754 19.2218 12.54 20 10.3385 20C10.2407 20.0001 10.1439 19.9803 10.0536 19.9416C9.96321 19.903 9.88112 19.8463 9.81199 19.7747C9.74286 19.7031 9.68804 19.6182 9.65069 19.5247C9.61334 19.4312 9.59418 19.3309 9.59431 19.2297ZM12.4433 14.2923L9.81033 11.5692C9.67104 11.4246 9.59267 11.2288 9.59232 11.0246V5.69129C9.59232 5.48728 9.67063 5.29162 9.81 5.14736C9.94938 5.0031 10.1384 4.92206 10.3355 4.92206C10.5326 4.92206 10.7217 5.0031 10.8611 5.14736C11.0004 5.29162 11.0787 5.48728 11.0787 5.69129V10.7056L13.4927 13.2041C13.5636 13.2751 13.6202 13.36 13.6591 13.4539C13.698 13.5477 13.7185 13.6487 13.7193 13.7508C13.7201 13.853 13.7012 13.9542 13.6638 14.0488C13.6264 14.1433 13.5712 14.2291 13.5014 14.3013C13.4316 14.3735 13.3486 14.4306 13.2572 14.4692C13.1659 14.5079 13.068 14.5273 12.9693 14.5263C12.8706 14.5254 12.7731 14.5041 12.6824 14.4638C12.5918 14.4234 12.5098 14.3648 12.4413 14.2913L12.4433 14.2923Z" fill="#C1C9E5"/>
</svg>
