<svg width="46" height="45" viewBox="0 0 46 45" fill="none" xmlns="http://www.w3.org/2000/svg">
<path d="M44.3663 27.9304C41.364 39.9766 29.1632 47.3324 17.0948 44.3282C5.0486 41.3167 -2.29543 29.1158 0.70694 17.0696C3.7093 5.02342 15.9027 -2.33243 27.9416 0.671763C40.0173 3.63914 47.3613 15.8768 44.3663 27.9304Z" fill="#10202D"/>
<path d="M32.6101 10.752H36.6709L28.2108 19.306C25.1464 22.408 20.1832 22.408 17.1188 19.306L8.65869 10.752H12.7195L19.1492 17.2568C21.048 19.1932 24.1876 19.212 26.124 17.3132C26.1428 17.2944 26.1616 17.2756 26.1804 17.2568L32.6101 10.752ZM12.6819 34.5341H8.62109L17.1376 25.9237C20.202 22.8217 25.1652 22.8217 28.2296 25.9237L36.7461 34.5341H32.6853L26.218 27.9917C24.3192 26.0553 21.1796 26.0365 19.2432 27.9353C19.2244 27.9541 19.2056 27.9729 19.1868 27.9917L12.6819 34.5341Z" fill="#C1C9E5"/>
</svg>
