<svg width="22" height="22" viewBox="0 0 22 22" fill="none" xmlns="http://www.w3.org/2000/svg">
<path d="M19.3366 11.3339C19.5209 11.3339 19.6699 11.1846 19.6699 11.0006C19.6699 10.8166 19.5209 10.6673 19.3366 10.6673H18.3282C18.3089 10.2433 18.2529 9.82895 18.1646 9.4266L19.1389 9.16559C19.3166 9.11824 19.4222 8.93523 19.3746 8.75758C19.3272 8.57926 19.1442 8.47426 18.9666 8.52156L17.9929 8.78258C17.8652 8.38125 17.7032 7.99559 17.5112 7.62758L18.3866 7.12223C18.5462 7.03023 18.6009 6.82656 18.5089 6.66691C18.4163 6.50727 18.2122 6.45293 18.0532 6.54492L17.1769 7.05059C16.9509 6.69859 16.6973 6.36625 16.4159 6.05859L17.1313 5.34324C17.2613 5.21324 17.2613 5.00223 17.1313 4.87191C17.0009 4.74191 16.7899 4.74191 16.6599 4.87191L15.9446 5.58727C15.6369 5.30625 15.3042 5.05227 14.9522 4.82625L15.4579 3.95023C15.5502 3.7909 15.4955 3.58691 15.3359 3.49457C15.1769 3.40258 14.9726 3.45723 14.8805 3.61691L14.3752 4.49191C14.0072 4.30023 13.6215 4.13824 13.2202 4.01059L13.4815 3.03758C13.5292 2.85957 13.4239 2.67691 13.2459 2.62926C13.0689 2.58191 12.8852 2.68727 12.8375 2.86461L12.5762 3.83895C12.1739 3.75063 11.7599 3.69496 11.3355 3.67563L11.3359 2.6673C11.3359 2.48332 11.1869 2.33398 11.0026 2.33398C10.8186 2.33398 10.6693 2.48332 10.6693 2.6673L10.6689 3.67563C10.2453 3.69496 9.83094 3.75098 9.42859 3.8393L9.16758 2.86496C9.11992 2.6873 8.93758 2.58129 8.75957 2.6293C8.58156 2.67664 8.4759 2.85965 8.52391 3.0373L8.78457 4.01129C8.38324 4.13895 7.99758 4.30094 7.62957 4.49262L7.12457 3.61727C7.03258 3.45762 6.82891 3.40293 6.66957 3.49492C6.50992 3.58691 6.45523 3.79094 6.54723 3.95027L7.05289 4.82695C6.7009 5.05328 6.36855 5.30695 6.0609 5.58828L5.3459 4.87262C5.21559 4.74227 5.00457 4.74262 4.87422 4.87227C4.74422 5.00258 4.74422 5.21359 4.87422 5.34395L5.58922 6.05961C5.30855 6.36727 5.05453 6.69996 4.82887 7.05195L3.95254 6.54527C3.7932 6.45293 3.58922 6.50762 3.49719 6.66727C3.4052 6.8266 3.45953 7.03027 3.61887 7.12262L4.49453 7.62863C4.30285 7.99664 4.14086 8.38231 4.0132 8.78363L3.03953 8.52164C2.86254 8.47465 2.67918 8.5793 2.63121 8.75731C2.58355 8.93496 2.68887 9.11797 2.86656 9.16563L3.84156 9.42762C3.75324 9.82996 3.69758 10.2439 3.67824 10.668L2.66957 10.6673H2.66926C2.48527 10.6673 2.33625 10.8163 2.33594 11.0003C2.33594 11.1846 2.48492 11.334 2.66895 11.334L3.67828 11.3346C3.69762 11.7586 3.75363 12.173 3.84195 12.5753L2.8673 12.8353C2.6893 12.883 2.58363 13.0657 2.63098 13.2436C2.67098 13.3926 2.80562 13.491 2.95297 13.491C2.98164 13.491 3.01031 13.4873 3.03898 13.4796L4.01398 13.2193C4.14164 13.6203 4.30363 14.006 4.49531 14.374L3.61965 14.8783C3.46 14.9703 3.40531 15.1743 3.49699 15.3336C3.55867 15.4406 3.67066 15.5006 3.78633 15.5006C3.84266 15.5006 3.89965 15.4863 3.95234 15.4563L4.82969 14.9506C5.0557 15.3026 5.30934 15.635 5.5907 15.9426L4.87469 16.6573C4.74434 16.7873 4.74402 16.9983 4.87402 17.1286C4.93938 17.1939 5.02469 17.2266 5.11004 17.2266C5.19539 17.2266 5.2807 17.1943 5.3457 17.1293L6.06203 16.4143C6.36969 16.6949 6.70203 16.9489 7.05402 17.1746L6.54734 18.0506C6.45535 18.21 6.50969 18.4136 6.66934 18.5059C6.72168 18.5363 6.77898 18.5506 6.83566 18.5506C6.95066 18.5506 7.06266 18.4912 7.12465 18.3843L7.63066 17.5089C7.99867 17.7006 8.38434 17.8626 8.78566 17.9902L8.52398 18.9632C8.47598 19.1412 8.58133 19.3239 8.75934 19.3719C8.78801 19.3796 8.81734 19.3832 8.84601 19.3832C8.99301 19.3832 9.1277 19.2852 9.1677 19.1366L9.42969 18.1619C9.83203 18.2506 10.2464 18.3062 10.67 18.3256L10.6694 19.3336C10.6694 19.5179 10.8184 19.6673 11.0024 19.6673H11.0027C11.1867 19.6673 11.336 19.5183 11.336 19.3343L11.3367 18.3256C11.7604 18.3062 12.175 18.2506 12.5773 18.1619L12.8377 19.1362C12.8773 19.2852 13.012 19.3836 13.1593 19.3836C13.188 19.3836 13.217 19.3799 13.2457 19.3723C13.4237 19.3246 13.529 19.1419 13.4817 18.9639L13.2213 17.9903C13.6223 17.8626 14.0083 17.7006 14.376 17.5089L14.8806 18.3843C14.942 18.4913 15.0543 18.551 15.1696 18.551C15.2259 18.551 15.2833 18.5366 15.3356 18.5066C15.4953 18.4146 15.5503 18.2106 15.458 18.0513L14.953 17.1746C15.3046 16.9486 15.6373 16.695 15.945 16.4136L16.6593 17.1289C16.7243 17.1943 16.81 17.227 16.8953 17.227C16.9807 17.227 17.0657 17.1943 17.131 17.1293C17.261 16.9993 17.261 16.7883 17.1313 16.658L16.4163 15.9423C16.6977 15.6346 16.9513 15.3023 17.1773 14.9503L18.0523 15.4563C18.1054 15.4867 18.1627 15.501 18.219 15.501C18.3344 15.501 18.4464 15.4413 18.508 15.3343C18.6004 15.175 18.5457 14.9713 18.3863 14.8789L17.5117 14.3733C17.7034 14.0053 17.8654 13.6193 17.993 13.2183L18.9657 13.4796C18.9946 13.4876 19.024 13.4913 19.0523 13.4913C19.1993 13.4913 19.334 13.3933 19.374 13.2443C19.422 13.0666 19.3164 12.8836 19.1387 12.836L18.1647 12.5743C18.2534 12.172 18.309 11.7576 18.3284 11.3339H19.3366V11.3339ZM11.0032 17.6673C7.32723 17.6673 4.33656 14.6766 4.33656 11.0006C4.33656 7.32457 7.32723 4.33391 11.0032 4.33391C14.6793 4.33391 17.6699 7.32457 17.6699 11.0006C17.6699 14.6766 14.6793 17.6673 11.0032 17.6673Z" fill="#C1C9E5" stroke="#C1C9E5" stroke-width="0.125"/>
<path d="M15 10C14.566 10 14.1996 10.2793 14.0617 10.6667H12.97C12.8287 9.83102 12.169 9.17133 11.3333 9.03V7.93867C11.7203 7.80035 12 7.43402 12 7C12 6.44867 11.5513 6 11 6C10.4487 6 10 6.44867 10 7C10 7.43398 10.2793 7.80035 10.6667 7.93832V9.03C9.83102 9.17133 9.17133 9.83102 9.03 10.6667H7.93867C7.80035 10.2793 7.43402 10 7 10C6.44867 10 6 10.4487 6 11C6 11.5513 6.44867 12 7 12C7.43398 12 7.80035 11.7207 7.93867 11.3333H9.03C9.17133 12.169 9.83102 12.8287 10.6667 12.97V14.0613C10.2793 14.1996 10 14.566 10 15C10 15.5513 10.4487 16 11 16C11.5513 16 12 15.5513 12 15C12 14.566 11.7204 14.1996 11.3333 14.0613V12.97C12.169 12.8287 12.8287 12.169 12.97 11.3333H14.0617C14.1997 11.7207 14.566 12 15 12C15.5513 12 16 11.5513 16 11C16 10.4487 15.5513 10 15 10ZM7 11.3333C6.81633 11.3333 6.66668 11.1837 6.66668 11C6.66668 10.8163 6.81633 10.6667 7 10.6667C7.18367 10.6667 7.33332 10.8163 7.33332 11C7.33332 11.1837 7.18367 11.3333 7 11.3333ZM11 6.66668C11.1837 6.66668 11.3333 6.81633 11.3333 7C11.3333 7.18367 11.1837 7.33332 11 7.33332C10.8163 7.33332 10.6667 7.18367 10.6667 7C10.6667 6.81633 10.8163 6.66668 11 6.66668ZM11 15.3333C10.8163 15.3333 10.6667 15.1837 10.6667 15C10.6667 14.8163 10.8163 14.6667 11 14.6667C11.1837 14.6667 11.3333 14.8163 11.3333 15C11.3333 15.1837 11.1837 15.3333 11 15.3333ZM11 12.3333C10.2646 12.3333 9.66668 11.7353 9.66668 11C9.66668 10.2646 10.2647 9.66668 11 9.66668C11.7354 9.66668 12.3333 10.2647 12.3333 11C12.3333 11.7354 11.7354 12.3333 11 12.3333ZM15 11.3333C14.816 11.3333 14.6667 11.1837 14.6667 11C14.6667 10.8163 14.816 10.6667 15 10.6667C15.184 10.6667 15.3333 10.8163 15.3333 11C15.3333 11.1837 15.184 11.3333 15 11.3333Z" fill="#C1C9E5" stroke="#C1C9E5" stroke-width="0.125"/>
<path d="M11 1C5.48602 1 1 5.48602 1 11C1 16.514 5.48602 21 11 21C16.514 21 21 16.514 21 11C21 5.48602 16.514 1 11 1ZM11 20.3333C5.85367 20.3333 1.66668 16.1463 1.66668 11C1.66668 5.85367 5.85367 1.66668 11 1.66668C16.1463 1.66668 20.3333 5.85367 20.3333 11C20.3333 16.1463 16.1463 20.3333 11 20.3333Z" fill="#C1C9E5" stroke="#C1C9E5" stroke-width="0.125"/>
</svg>
