<svg width="26" height="26" viewBox="0 0 26 26" fill="none" xmlns="http://www.w3.org/2000/svg">
<path d="M20.5 8.12939H13.5V9.12939H20.5V8.12939Z" fill="#C1C9E5"/>
<path d="M20.5 16.1294H13.5V17.1294H20.5V16.1294Z" fill="#C1C9E5"/>
<path d="M10.3 12.1294H6.7C6.38185 12.129 6.07684 12.0025 5.85188 11.7775C5.62691 11.5526 5.50037 11.2475 5.5 10.9294V7.32939C5.50037 7.01125 5.62691 6.70623 5.85188 6.48127C6.07684 6.25631 6.38185 6.12976 6.7 6.12939H10.3C10.6181 6.12976 10.9232 6.25631 11.1481 6.48127C11.3731 6.70623 11.4996 7.01125 11.5 7.32939V10.9294C11.4996 11.2475 11.3731 11.5526 11.1481 11.7775C10.9232 12.0025 10.6181 12.129 10.3 12.1294ZM6.7 7.32939V10.9294H10.3007L10.3 7.32939H6.7Z" fill="#C1C9E5"/>
<path d="M10.3 19.1294H6.7C6.38185 19.1291 6.07684 19.0236 5.85188 18.8362C5.62691 18.6487 5.50037 18.3945 5.5 18.1294V15.1294C5.50037 14.8643 5.62691 14.6101 5.85188 14.4226C6.07684 14.2352 6.38185 14.1297 6.7 14.1294H10.3C10.6181 14.1297 10.9232 14.2352 11.1481 14.4226C11.3731 14.6101 11.4996 14.8643 11.5 15.1294V18.1294C11.4996 18.3945 11.3731 18.6487 11.1481 18.8362C10.9232 19.0236 10.6181 19.1291 10.3 19.1294ZM6.7 15.1294V18.1294H10.3007L10.3 15.1294H6.7Z" fill="#C1C9E5"/>
<path d="M19 0.879395C22.1756 0.879395 24.75 3.45376 24.75 6.62939V18.6294C24.75 21.805 22.1756 24.3794 19 24.3794H7C3.82436 24.3794 1.25 21.805 1.25 18.6294V6.62939C1.25 3.45376 3.82436 0.879395 7 0.879395H19Z" stroke="#C1C9E5" stroke-width="1.5"/>
</svg>
