<svg width="20" height="20" viewBox="0 0 20 20" fill="none" xmlns="http://www.w3.org/2000/svg">
<path d="M9.1018 0C12.0315 0 14.5285 2.14129 15.0919 5.06007C17.924 5.6408 20 8.2155 20 11.2346C20 14.7119 17.2654 17.5309 13.8922 17.5309C12.9985 17.5309 12.1319 17.3327 11.3383 16.9556L11.3179 16.9912C10.2145 18.8456 8.25757 20 6.10779 20C2.73455 20 0 17.1811 0 13.7037C0 11.3413 1.27354 9.21357 3.25861 8.13301C3.08385 7.54368 2.99401 6.92639 2.99401 6.29629C2.99401 2.81895 5.72856 0 9.1018 0ZM8.38637 16.3693L8.25621 16.4819C7.81408 16.8458 7.29124 17.0932 6.7299 17.1987L6.56038 17.2261L6.56015 19.0472C7.64713 18.9507 8.66179 18.5068 9.47914 17.7891L9.63006 17.6513L8.38637 16.3693ZM3.92548 16.4537L2.67934 17.7382C3.45547 18.4398 4.415 18.8896 5.44789 19.0245L5.65541 19.0472L5.65518 17.2261C5.07382 17.1475 4.52794 16.9179 4.06261 16.5636L3.92548 16.4537ZM2.69079 14.1701L0.924252 14.17C1.0076 15.1674 1.35776 16.1067 1.92745 16.8976L2.05288 17.0647L3.30635 15.7736C3.01399 15.3539 2.81361 14.8737 2.72061 14.363L2.69079 14.1701ZM11.2913 14.17L9.52481 14.1699L9.49765 14.3481C9.42418 14.7613 9.28044 15.155 9.07426 15.5133L8.9821 15.6647L10.2407 16.9623C10.799 16.2111 11.1558 15.3219 11.2705 14.374L11.2913 14.17ZM12.1865 14.3223L12.1602 14.5553C12.0891 15.0967 11.9505 15.6227 11.7484 16.123C12.2134 16.3402 12.7082 16.4857 13.2197 16.5537L13.4399 16.5781L13.4396 14.757C13.0599 14.7056 12.6945 14.5898 12.3543 14.4147L12.1865 14.3223ZM16.1708 13.9002C15.7027 14.3258 15.1318 14.6135 14.5143 14.7296L14.3448 14.757L14.3446 16.5781C15.4316 16.4815 16.4462 16.0377 17.2636 15.32L17.4145 15.1822L16.1708 13.9002ZM6.10779 11.0837C4.70411 11.0837 3.56619 12.2567 3.56619 13.7037C3.56619 15.1507 4.70411 16.3237 6.10779 16.3237C7.51147 16.3237 8.64936 15.1507 8.64936 13.7037C8.64936 12.2567 7.51147 11.0837 6.10779 11.0837ZM19.0757 11.7009L17.3092 11.7007L17.2821 11.879C17.2086 12.2922 17.0649 12.6858 16.8587 13.0442L16.7665 13.1956L18.0252 14.4931C18.5834 13.742 18.9402 12.8528 19.0549 11.9049L19.0757 11.7009ZM12.0853 14.0449L12.0885 14.0065L12.0894 13.9776L12.0853 14.0449ZM14.7249 8.75834L14.641 8.95249C14.1207 10.1036 13.2706 11.07 12.2086 11.7183L12.019 11.8293L11.9513 11.8662C12.0774 12.2929 12.1594 12.734 12.195 13.1838C12.6568 13.6127 13.2559 13.8546 13.8922 13.8546C15.2959 13.8546 16.4338 12.6816 16.4338 11.2346C16.4338 10.1502 15.7891 9.19551 14.8402 8.80275L14.7249 8.75834ZM12.0928 13.5241L12.0947 13.6303L12.0943 13.5644L12.0928 13.5241ZM12.1988 13.2333L12.0794 13.2418L12.1359 13.2933L12.2025 13.2889L12.1988 13.2333ZM12.0794 13.2418C12.0805 13.2576 12.0815 13.2727 12.0824 13.2878L12.0794 13.2418ZM10.1038 10.2686L8.85406 11.5568C9.17811 11.9966 9.39875 12.5079 9.49669 13.054L9.52479 13.2373L11.2913 13.2374C11.205 12.2049 10.8328 11.2349 10.2279 10.4278L10.1038 10.2686ZM2.05285 10.3427L1.92744 10.5099C1.39844 11.2442 1.05873 12.1066 0.946171 13.0246L0.924252 13.2374L2.69075 13.2375C2.75662 12.7198 2.93176 12.2288 3.20076 11.7945L3.30601 11.6343L2.05285 10.3427ZM11.7447 11.6182L11.7677 11.6867H11.7682L11.7647 11.6749L11.7447 11.6182ZM11.7306 11.5776L11.7441 11.617L11.7381 11.5971L11.7306 11.5776ZM11.3804 8.96188C11.1551 9.16665 10.9049 9.34045 10.6361 9.47845C11.0332 9.93045 11.3652 10.4395 11.6208 10.9902C11.9102 10.825 12.1836 10.6315 12.4374 10.4127L12.624 10.2439L11.3804 8.96188ZM5.65545 8.36017L5.44791 8.38294C4.48387 8.50879 3.58373 8.90904 2.83697 9.53227L2.67934 9.66921L3.92584 10.9541C4.37389 10.575 4.9079 10.318 5.48211 10.2093L5.65554 10.1812L5.65545 8.36017ZM6.56013 8.36017L6.55999 10.1812C7.10745 10.2552 7.62371 10.4631 8.07116 10.7834L8.2177 10.8943L9.46619 9.60705C8.70068 8.93934 7.76561 8.512 6.76178 8.38216L6.56013 8.36017ZM17.8882 7.79948L16.6385 9.08771C16.9625 9.52749 17.1832 10.0387 17.2811 10.5849L17.3092 10.7682L19.0757 10.7682C18.9895 9.73575 18.6172 8.76572 18.0123 7.95869L17.8882 7.79948ZM14.2853 6.7626L12.5188 6.76245L12.4917 6.9407C12.4182 7.35391 12.2744 7.74756 12.0683 8.10593L11.9761 8.25732L13.2348 9.55487C13.793 8.80374 14.1498 7.91448 14.2645 6.96659L14.2853 6.7626ZM9.96431 8.821L9.88859 8.91665L9.88945 8.91737L9.89942 8.91333L9.9697 8.82554L9.96431 8.821ZM9.1018 3.67628C7.69812 3.67628 6.56022 4.84929 6.56022 6.29629C6.56022 6.6516 6.62883 6.99655 6.7597 7.31564L6.81958 7.45077L6.94778 7.46649C8.04001 7.62139 9.06042 8.0773 9.91346 8.77872C10.9369 8.42486 11.6434 7.43142 11.6434 6.29629C11.6434 4.84929 10.5055 3.67628 9.1018 3.67628ZM14.71 8.46182L14.6994 8.4903L14.7014 8.48731L14.71 8.46182ZM15.2047 6.04315C15.208 6.12731 15.2096 6.2117 15.2096 6.29629C15.2096 6.71333 15.1702 7.12513 15.0925 7.52896L15.0412 7.77029L15.0149 7.8744L15.1912 7.94269C15.4235 8.04027 15.6445 8.16375 15.8505 8.31064L16.0021 8.42515L17.2506 7.1379C16.6575 6.62058 15.9595 6.24536 15.2047 6.04315ZM3.41634 8.18805L3.40309 8.19495C3.40881 8.19196 3.41257 8.19001 3.41634 8.18805ZM3.36765 8.07454L3.3492 8.0847L3.40176 8.19151L3.36765 8.07454ZM3.60953 8.09212C3.6074 8.09313 3.60525 8.09414 3.60312 8.09515L3.60953 8.09212ZM3.83915 7.98928L3.79263 8.00918L3.85471 7.98303L3.83915 7.98928ZM3.90295 7.96242L3.86647 7.97818L3.90352 7.96304L3.90295 7.96242ZM5.6848 6.76268L3.91826 6.76262C3.94654 7.10127 4.0056 7.43398 4.09426 7.75749C4.64966 7.55777 5.23249 7.44147 5.82927 7.41385C5.7785 7.25575 5.73855 7.09363 5.7098 6.92862L5.6848 6.76268ZM6.59411 7.55092L6.59354 7.55151L6.60117 7.55212L6.60059 7.55151L6.59411 7.55092ZM6.50263 7.54419L6.54778 7.54727H6.54941L6.50263 7.54419ZM6.28834 7.53363L6.37661 7.53697C6.3473 7.53566 6.31785 7.53453 6.28834 7.53363ZM13.0978 2.86122L11.8481 4.14943C12.1721 4.58921 12.3928 5.10044 12.4907 5.6466L12.5188 5.82991L14.2853 5.82997C14.199 4.79747 13.8268 3.82744 13.2219 3.02041L13.0978 2.86122ZM5.04687 2.93531C4.44606 3.70447 4.0614 4.62859 3.94018 5.6172L3.91826 5.82999L5.68478 5.83013C5.75065 5.31234 5.92579 4.82136 6.19478 4.38706L6.30001 4.22691L5.04687 2.93531ZM14.9896 5.16553L14.9894 5.16666L14.9947 5.19698L14.9896 5.16553ZM15.1074 5.1434L14.9912 5.16546L15.0759 5.18242L15.1131 5.17589L15.1074 5.1434ZM8.64945 0.952777L8.44192 0.975527C7.47787 1.10138 6.57775 1.50164 5.83099 2.12487L5.67334 2.26182L6.91986 3.54672C7.36792 3.16761 7.90191 2.91054 8.47611 2.80192L8.64954 2.77381L8.64945 0.952777ZM9.55414 0.952777L9.554 2.77381C10.1015 2.84782 10.6177 3.05564 11.0652 3.37597L11.2117 3.48688L12.4602 2.19963C11.6947 1.53193 10.7596 1.10459 9.75579 0.97475L9.55414 0.952777Z" fill="#C1C9E5"/>
</svg>
