<svg width="45" height="45" viewBox="0 0 45 45" fill="none" xmlns="http://www.w3.org/2000/svg">
<path d="M44.3312 27.9304C41.3288 39.9766 29.128 47.3324 17.0597 44.3282C5.01344 41.3167 -2.33058 29.1158 0.671783 17.0696C3.67415 5.02342 15.8676 -2.33243 27.9065 0.671763C39.9822 3.63914 47.3262 15.8768 44.3312 27.9304Z" fill="#10202D"/>
<path fill-rule="evenodd" clip-rule="evenodd" d="M14.2257 13.0508H31.0734C31.4754 13.0508 31.8468 13.2591 32.0473 13.597L36.9558 21.8711C37.2102 22.3002 37.1347 22.8418 36.7716 23.1897L23.261 36.1376C22.8233 36.5571 22.1193 36.5571 21.6816 36.1376L8.18934 23.2072C7.81783 22.8512 7.74827 22.2938 8.02146 21.862L13.2682 13.5705C13.4725 13.2476 13.8351 13.0508 14.2257 13.0508ZM28.8981 16.7449V19.0664H24.0989V20.6761C27.4695 20.8481 29.9984 21.5546 30.0172 22.4013L30.017 24.1666C29.9983 25.0134 27.4695 25.7199 24.0989 25.8919V29.8421H20.9121V25.8919C17.5415 25.7199 15.0126 25.0134 14.9938 24.1666L14.9939 22.4013C15.0127 21.5546 17.5415 20.8481 20.9121 20.6761V19.0664H16.1129V16.7449H28.8981ZM22.5055 24.6791C26.1026 24.6791 29.1091 24.0817 29.8449 23.284C29.2209 22.6075 26.9641 22.0751 24.0989 21.9288V23.6141C23.5853 23.6403 23.0522 23.6541 22.5055 23.6541C21.9587 23.6541 21.4256 23.6403 20.9121 23.6141V21.9288C18.0469 22.0751 15.79 22.6075 15.1661 23.284C15.9019 24.0817 18.9084 24.6791 22.5055 24.6791Z" fill="#C1C9E5"/>
</svg>
