<svg width="20" height="20" viewBox="0 0 20 20" fill="none" xmlns="http://www.w3.org/2000/svg">
<path fill-rule="evenodd" clip-rule="evenodd" d="M5.81247 0.33227C6.89423 0.149758 8.29991 0 10.0002 0C11.7004 0 13.106 0.149758 14.1878 0.33227L14.3133 0.35333C15.253 0.510633 16.034 0.641386 16.6448 1.39356C17.0366 1.87598 17.1629 2.39733 17.192 2.97974L17.6494 3.1322C18.0802 3.27579 18.4578 3.40163 18.7574 3.54099C19.0812 3.69165 19.378 3.88571 19.6049 4.20051C19.8318 4.51531 19.922 4.85825 19.9626 5.21313C20 5.5414 20 5.93942 20 6.39354V6.52863C20 6.90239 20 7.23255 19.9724 7.50864C19.9425 7.80789 19.8763 8.0988 19.7108 8.37991C19.5454 8.66112 19.3233 8.86028 19.0762 9.03172C18.8482 9.18995 18.5596 9.35023 18.2328 9.53172L15.7765 10.8965C15.2747 11.8837 14.5853 12.764 13.6373 13.3998C12.8236 13.9455 11.8494 14.291 10.6977 14.3895V16.2791H12.0281C12.8041 16.2791 13.4722 16.8268 13.6244 17.5877L13.8278 18.6047H15.5814C15.9667 18.6047 16.2791 18.917 16.2791 19.3023C16.2791 19.6876 15.9667 20 15.5814 20H4.41861C4.03329 20 3.72093 19.6876 3.72093 19.3023C3.72093 18.917 4.03329 18.6047 4.41861 18.6047H6.17223L6.37562 17.5877C6.52781 16.8268 7.19593 16.2791 7.97192 16.2791H9.30233V14.3895C8.1507 14.2909 7.17656 13.9455 6.36295 13.3998C5.41502 12.764 4.72575 11.8839 4.22398 10.8967L1.76709 9.53172C1.44034 9.35023 1.15175 9.18995 0.923788 9.03172C0.676728 8.86028 0.454579 8.66112 0.289147 8.37991C0.123714 8.0988 0.0574907 7.80789 0.0275837 7.50864C-6.98275e-06 7.23253 2.35661e-06 6.9024 1.16589e-05 6.52862L2.34398e-06 6.39353C-3.48653e-05 5.93942 -7.208e-05 5.5414 0.0373977 5.21313C0.0779093 4.85825 0.168151 4.51531 0.395035 4.20051C0.621928 3.88571 0.918718 3.69165 1.24258 3.54099C1.54215 3.40163 1.91975 3.27579 2.35057 3.1322L2.80829 2.97963C2.83743 2.39727 2.9638 1.87594 3.35546 1.39356C3.9662 0.641386 4.74729 0.510633 5.68703 0.35333L5.81247 0.33227ZM7.59522 18.6047H12.4048L12.2561 17.8614C12.2344 17.7527 12.139 17.6744 12.0281 17.6744H7.97192C7.86106 17.6744 7.76562 17.7527 7.74388 17.8614L7.59522 18.6047ZM2.83917 4.44017L2.8265 4.44439C2.35077 4.60297 2.04988 4.70437 1.83114 4.80614C1.62865 4.90034 1.56351 4.96574 1.52702 5.01637C1.49052 5.067 1.44907 5.14949 1.42375 5.37137C1.39638 5.61108 1.39534 5.92859 1.39536 6.43006V6.49753C1.39537 6.91165 1.39618 7.1714 1.41601 7.36989C1.4343 7.55288 1.46445 7.62592 1.49175 7.67232C1.51905 7.71872 1.56826 7.78053 1.71934 7.88539C1.88323 7.99913 2.1099 8.12597 2.4719 8.32707L3.46324 8.87786C3.06549 7.41745 2.90574 5.8544 2.83917 4.44017ZM16.5371 8.87768C16.9348 7.41734 17.0945 5.85441 17.1611 4.44028L17.1735 4.44439C17.6492 4.60297 17.95 4.70437 18.1688 4.80614C18.3713 4.90034 18.4365 4.96574 18.4729 5.01637C18.5095 5.067 18.5509 5.14949 18.5762 5.37137C18.6035 5.61108 18.6047 5.92859 18.6047 6.43006V6.49753C18.6046 6.91165 18.6038 7.1714 18.5839 7.36989C18.5657 7.55288 18.5355 7.62592 18.5082 7.67232C18.4809 7.71872 18.4317 7.78053 18.2807 7.88539C18.1167 7.99913 17.89 8.12597 17.5281 8.32707L16.5371 8.87768ZM10.0002 1.39535C8.38214 1.39535 7.05413 1.53785 6.04462 1.70818C4.9219 1.8976 4.68606 1.96847 4.43871 2.2731C4.19494 2.57332 4.1718 2.85727 4.22184 4.11788C4.30526 6.21895 4.58242 8.48623 5.44078 10.2106C5.86449 11.0618 6.41845 11.7569 7.14018 12.2409C7.85727 12.722 8.78242 13.0233 10.0002 13.0233C11.2179 13.0233 12.143 12.722 12.8601 12.2409C13.5819 11.7569 14.1358 11.0618 14.5595 10.2106C15.4179 8.48623 15.6951 6.21895 15.7784 4.11788C15.8285 2.85727 15.8053 2.57332 15.5616 2.2731C15.3142 1.96847 15.0784 1.8976 13.9557 1.70818C12.9461 1.53785 11.6181 1.39535 10.0002 1.39535Z" fill="#C1C9E5"/>
</svg>
