<svg width="46" height="45" viewBox="0 0 46 45" fill="none" xmlns="http://www.w3.org/2000/svg">
<path d="M44.3663 27.9304C41.364 39.9766 29.1632 47.3324 17.0948 44.3282C5.0486 41.3167 -2.29543 29.1158 0.70694 17.0696C3.7093 5.02342 15.9027 -2.33243 27.9416 0.671763C40.0173 3.63914 47.3613 15.8768 44.3663 27.9304Z" fill="#10202D"/>
<path d="M9.43647 17.5331C6.71757 24.752 10.4676 32.9082 17.7801 35.5331C18.0614 35.7207 18.3426 36.0956 18.3426 36.3768V37.6895C18.3426 37.8769 18.3426 37.9707 18.2488 38.0643C18.1552 38.4394 17.7801 38.6268 17.4051 38.4394C12.1551 36.7519 8.12382 32.7206 6.43632 27.4706C3.62382 18.5645 8.4989 9.09555 17.4051 6.28305C17.4989 6.18945 17.6863 6.18945 17.7801 6.18945C18.1552 6.28305 18.3426 6.5643 18.3426 6.93938V8.2518C18.3426 8.7207 18.1552 9.00195 17.7801 9.18938C13.9365 10.5956 10.8427 13.5956 9.43647 17.5331Z" fill="#C1C9E5"/>
<path d="M26.874 6.65813C26.9676 6.28305 27.3426 6.09563 27.7177 6.28305C32.8738 7.97055 36.999 12.0019 38.6865 17.3456C41.499 26.2518 36.6239 35.7207 27.7177 38.5332C27.6239 38.6268 27.4365 38.6268 27.3426 38.6268C26.9676 38.5332 26.7801 38.2519 26.7801 37.8769V36.5645C26.7801 36.0956 26.9676 35.8143 27.3426 35.6269C31.1863 34.2206 34.2801 31.2207 35.6863 27.2832C38.4052 20.0643 34.6551 11.9081 27.3426 9.2832C27.0614 9.09555 26.7801 8.7207 26.7801 8.34563V7.0332C26.7801 6.84555 26.7801 6.75195 26.874 6.65813Z" fill="#C1C9E5"/>
<path d="M22.8426 20.8145C26.7801 21.2832 28.7488 22.4082 28.7488 25.6894C28.7488 28.2206 26.8739 30.1894 24.0614 30.6583V32.9083C23.9676 33.3769 23.6863 33.6582 23.3112 33.6582H21.905C21.4363 33.5644 21.1551 33.2831 21.1551 32.9083V30.6583C18.0613 30.1894 16.5613 28.5019 16.1864 26.1583V26.0644C16.1864 25.6894 16.4677 25.4081 16.8425 25.4081H18.4364C18.7177 25.4081 18.9989 25.5958 19.0925 25.9706C19.3738 27.3769 20.2175 28.4083 22.6551 28.4083C24.4363 28.4083 25.7489 27.3771 25.7489 25.877C25.7489 24.3769 24.9051 23.8144 22.2801 23.3458C18.3426 22.8769 16.4677 21.6583 16.4677 18.5645C16.4677 16.2207 18.2488 14.3458 21.0613 13.9707V11.8145C21.1551 11.3456 21.4363 11.0644 21.8114 11.0644H23.2177C23.6863 11.1582 23.9676 11.4394 23.9676 11.8145V14.0645C26.1237 14.2519 27.8112 15.8456 28.1863 17.9082V18.002C28.1863 18.3769 27.9051 18.6581 27.53 18.6581H26.0302C25.7489 18.6581 25.4676 18.4707 25.3738 18.1894C24.9051 16.7832 23.9676 16.2207 22.2801 16.2207C20.4051 16.2207 19.4676 17.0642 19.4676 18.3769C19.4676 19.6895 20.0301 20.4394 22.8426 20.8145Z" fill="#C1C9E5"/>
</svg>
