<svg width="20" height="20" viewBox="0 0 20 20" fill="none" xmlns="http://www.w3.org/2000/svg">
<path d="M10.1094 11.0003C10.0454 10.9912 9.96305 10.9912 9.88988 11.0003C8.28012 10.9454 6.99963 9.62628 6.99963 8.0049C6.99963 6.34689 8.335 5.00032 9.99963 5.00032C11.6551 5.00032 12.9996 6.34689 12.9996 8.0049C12.9905 9.62628 11.7191 10.9454 10.1094 11.0003Z" stroke="#C1C9E5" stroke-width="1.5" stroke-linecap="round" stroke-linejoin="round"/>
<path d="M15.9996 16.6058C14.4151 18.0955 12.3142 19.0003 9.99963 19.0003C7.68509 19.0003 5.5842 18.0955 3.99963 16.6058C4.08865 15.7467 4.62278 14.9059 5.5753 14.2478C8.01447 12.5845 12.0026 12.5845 14.424 14.2478C15.3765 14.9059 15.9106 15.7467 15.9996 16.6058Z" stroke="#C1C9E5" stroke-width="1.5" stroke-linecap="round" stroke-linejoin="round"/>
<path d="M9.99963 19.0003C14.9702 19.0003 18.9996 14.9709 18.9996 10.0003C18.9996 5.02976 14.9702 1.00032 9.99963 1.00032C5.02907 1.00032 0.999634 5.02976 0.999634 10.0003C0.999634 14.9709 5.02907 19.0003 9.99963 19.0003Z" stroke="#C1C9E5" stroke-width="1.5" stroke-linecap="round" stroke-linejoin="round"/>
</svg>
