<svg width="22" height="20" viewBox="0 0 22 20" fill="none" xmlns="http://www.w3.org/2000/svg">
<path d="M21.9772 5.979L18.306 19.5123C18.2265 19.8057 17.9567 19.9997 17.6628 19.9998C17.606 19.9998 17.5483 19.9925 17.4908 19.9773L8.51032 17.6005C8.15578 17.5066 7.94462 17.1453 8.03967 16.7951L8.13651 16.4382C8.19758 16.2132 8.43175 16.0798 8.65956 16.14C8.88736 16.2003 9.02255 16.4316 8.96148 16.6566L8.91341 16.8338L17.5298 19.1142L21.1034 5.94043L17.4483 4.97305C17.2205 4.91273 17.0852 4.68143 17.1463 4.45641C17.2074 4.23139 17.4417 4.09796 17.6693 4.15814L21.5066 5.1737C21.8612 5.26762 22.0723 5.62884 21.9772 5.979ZM7.8828 1.76069C7.64692 1.76069 7.45574 1.94952 7.45574 2.18251V2.58394C7.45574 2.81693 7.64692 3.00576 7.8828 3.00576C8.11867 3.00576 8.30985 2.81693 8.30985 2.58394V2.18251C8.30985 1.94952 8.11867 1.76069 7.8828 1.76069ZM13.3282 7.41934C13.4327 7.56529 13.4327 7.76045 13.3282 7.90645L11.3488 10.6715C11.2687 10.7833 11.1387 10.8498 11.0001 10.8498C10.8615 10.8498 10.7314 10.7834 10.6514 10.6715L8.67189 7.90645C8.56741 7.7605 8.56741 7.56534 8.67189 7.41934L10.6514 4.65425C10.7315 4.54246 10.8615 4.47596 11.0001 4.47596C11.1387 4.47596 11.2687 4.54242 11.3488 4.65425L13.3282 7.41934ZM12.4565 7.66287L11.0001 5.62837L9.54365 7.66287L11.0001 9.69732L12.4565 7.66287ZM16.2762 16.9807L16.171 17.3685C16.11 17.5935 16.2452 17.8248 16.473 17.8851C16.51 17.8949 16.5472 17.8996 16.5838 17.8996C16.7724 17.8996 16.9449 17.7752 16.996 17.5868L17.1012 17.199C17.1622 16.974 17.027 16.7427 16.7992 16.6824C16.5714 16.622 16.3372 16.7557 16.2762 16.9807ZM5.33221 9.25431C5.45448 9.22197 5.57211 9.20327 5.6859 9.1983V0.657527C5.6859 0.294948 5.9845 0 6.35153 0H15.6487C16.0158 0 16.3144 0.294948 16.3144 0.657527V9.19826C16.4281 9.20322 16.5457 9.22193 16.6679 9.25426C17.4514 9.46161 17.918 10.2599 17.7081 11.0338C17.505 11.7825 16.8563 12.3512 16.3144 12.74V14.6682C16.3144 15.0307 16.0158 15.3257 15.6487 15.3257H6.35153C5.9845 15.3257 5.6859 15.0307 5.6859 14.6682V12.7401C5.14392 12.3513 4.49523 11.7827 4.292 11.0338C4.19032 10.6591 4.24256 10.2675 4.4391 9.93134C4.63564 9.59519 4.95284 9.3547 5.33221 9.25431ZM16.3144 11.6511C16.6243 11.3618 16.809 11.0886 16.8831 10.8155C16.9711 10.491 16.7753 10.1562 16.4468 10.0692C16.3971 10.056 16.3533 10.048 16.3144 10.044V11.6511ZM6.54 14.4821H15.4603V12.5277C15.4602 12.5239 15.4602 12.5202 15.4603 12.5164V9.70861C15.4601 9.70252 15.4601 9.69638 15.4603 9.69029V0.843645H6.54V9.69043C6.54014 9.69652 6.54014 9.70266 6.54 9.7088V12.5162C6.54005 12.5201 6.54005 12.524 6.54 12.528V14.4821ZM5.11702 10.8155C5.19118 11.0887 5.37596 11.362 5.6859 11.6512V10.044C5.6469 10.048 5.60305 10.056 5.55332 10.0692C5.39422 10.1113 5.26122 10.2122 5.17875 10.3533C5.09633 10.4943 5.07441 10.6584 5.11702 10.8155ZM8.23621 18.1175L4.47042 19.1142L0.896656 5.94048L4.55179 4.97305C4.7796 4.91273 4.91483 4.68143 4.85377 4.45641C4.7927 4.23139 4.55839 4.09786 4.33077 4.15814L0.493566 5.17374C0.322081 5.21911 0.178639 5.32794 0.0896703 5.48017C0.000653756 5.63245 -0.0230713 5.80962 0.0229079 5.97905L3.69413 19.5122C3.74006 19.6817 3.85024 19.8234 4.00445 19.9114C4.10723 19.97 4.22116 20 4.33661 20C4.3943 20 4.45234 19.9925 4.50951 19.9774L8.45732 18.9326C8.68513 18.8722 8.82036 18.6409 8.7593 18.416C8.69818 18.1908 8.46401 18.0573 8.23621 18.1175ZM2.43409 6.48289C2.20628 6.54321 2.0711 6.77451 2.13212 6.99953L2.23731 7.38733C2.28847 7.57579 2.46099 7.70008 2.64956 7.70008C2.68615 7.70008 2.72335 7.6954 2.76036 7.6856C2.98817 7.62528 3.12335 7.39398 3.06233 7.16896L2.95713 6.78117C2.89606 6.5561 2.66199 6.42262 2.43409 6.48289ZM14.1174 12.32C13.8815 12.32 13.6903 12.5088 13.6903 12.7418V13.1432C13.6903 13.3762 13.8815 13.5651 14.1174 13.5651C14.3532 13.5651 14.5444 13.3762 14.5444 13.1432V12.7418C14.5444 12.5089 14.3532 12.32 14.1174 12.32Z" fill="#C1C9E5"/>
</svg>
