<svg width="22" height="22" viewBox="0 0 22 22" fill="none" xmlns="http://www.w3.org/2000/svg">
<path d="M15.3073 17.3991H6.69063C6.30563 17.3991 5.87479 17.0966 5.74646 16.7299L1.95146 6.1149C1.41063 4.59323 2.04313 4.12573 3.3448 5.06073L6.9198 7.61823C7.51563 8.03073 8.19396 7.8199 8.45063 7.15073L10.064 2.85156C10.5773 1.47656 11.4298 1.47656 11.9431 2.85156L13.5565 7.15073C13.8131 7.8199 14.4915 8.03073 15.0781 7.61823L18.4331 5.22573C19.8631 4.19906 20.5506 4.72156 19.964 6.38073L16.2606 16.7482C16.1231 17.0966 15.6923 17.3991 15.3073 17.3991Z" stroke="#C1C9E5" stroke-width="1.5" stroke-linecap="round" stroke-linejoin="round"/>
<path d="M5.96094 20.1641H16.0443" stroke="#C1C9E5" stroke-width="1.5" stroke-linecap="round" stroke-linejoin="round"/>
<path d="M8.71094 12.8359H13.2943" stroke="#C1C9E5" stroke-width="1.5" stroke-linecap="round" stroke-linejoin="round"/>
</svg>
