<svg width="68" height="45" viewBox="0 0 68 45" fill="none" xmlns="http://www.w3.org/2000/svg">
<rect width="67.5" height="45" rx="4" fill="#10202D"/>
<path d="M28.8791 30.1552H25.0625L27.4497 15.8047H31.2661L28.8791 30.1552Z" fill="#C1C9E5"/>
<path d="M42.7124 16.1559C41.9596 15.8655 40.7656 15.5449 39.2892 15.5449C35.5202 15.5449 32.8661 17.4989 32.8498 20.2926C32.8185 22.3537 34.7501 23.4985 36.1948 24.1858C37.6714 24.888 38.1733 25.3464 38.1733 25.9724C38.1583 26.9338 36.9801 27.3769 35.8813 27.3769C34.3575 27.3769 33.5411 27.1485 32.3003 26.6136L31.7977 26.3843L31.2637 29.6057C32.1588 30.0022 33.808 30.354 35.5202 30.3694C39.5249 30.3694 42.132 28.4456 42.1629 25.4686C42.1782 23.835 41.1582 22.5832 38.9593 21.5603C37.6244 20.9037 36.8069 20.461 36.8069 19.7892C36.8226 19.1784 37.4983 18.5528 39.0052 18.5528C40.246 18.5222 41.1576 18.8122 41.8482 19.1023L42.1934 19.2547L42.7124 16.1559Z" fill="#C1C9E5"/>
<path d="M47.7877 25.0713C48.102 24.2469 49.3115 21.0562 49.3115 21.0562C49.2956 21.0868 49.6252 20.2165 49.8136 19.6823L50.0804 20.9188C50.0804 20.9188 50.8031 24.3538 50.9601 25.0713C50.3636 25.0713 48.5416 25.0713 47.7877 25.0713ZM52.4988 15.8047H49.5467C48.6363 15.8047 47.9447 16.064 47.5519 16.9954L41.8828 30.155H45.8875C45.8875 30.155 46.5468 28.3838 46.6885 28.0023C47.1278 28.0023 51.0235 28.0023 51.5887 28.0023C51.6982 28.5061 52.0441 30.155 52.0441 30.155H55.5779L52.4988 15.8047Z" fill="#C1C9E5"/>
<path d="M21.8738 15.8047L18.1361 25.5904L17.7276 23.6057C17.0366 21.3157 14.8694 18.8276 12.4509 17.5905L15.8745 30.14H19.9105L25.9095 15.8047H21.8738Z" fill="#C1C9E5"/>
<path d="M14.6663 15.8047H8.52571L8.46289 16.0947C13.2529 17.2857 16.4252 20.1566 17.7286 23.6072L16.3937 17.0111C16.1739 16.0945 15.4986 15.8349 14.6663 15.8047Z" fill="#C1C9E5"/>
</svg>
